<svg xmlns="http://www.w3.org/2000/svg" xmlns:xlink="http://www.w3.org/1999/xlink" id="body_1" preserveAspectRatio="xMinYMin meet" viewBox="0 0 1123 793"><defs><clipPath id="1"><path d="M0 595L0 0L0 0L842 0L842 0L842 595L842 595L0 595z" /></clipPath><clipPath id="2"><path d="M0 6888.41L836.1772 6888.41L836.1772 6888.41L836.1772 0.07373047L836.1772 0.07373047L0 0.07373047z" /></clipPath><clipPath id="3"><path d="M20.71113 38.18848L820.0388 38.18848L820.0388 38.18848L820.0388 556.0303L820.0388 556.0303L20.71113 556.0303z" /></clipPath></defs><g transform="matrix(1.333333 0 0 1.333333 0 0)"><g><g clip-path="url(#1)"><g clip-path="url(#2)"><path transform="matrix(1 0 0 -1 0 595)" d="M6.232927 571.272L834.3009 571.272L834.3009 571.272L834.3009 24.79688L834.3009 24.79688L6.232927 24.79688z" stroke="#000000" stroke-width="0.07201438" fill="#FFFCF8" fill-rule="winding" /><path transform="matrix(1 0 0 -1 0 595)" d="M20.63912 556.8833L819.8947 556.8833L819.8947 556.8833L819.8947 39.11328L819.8947 39.11328L20.63912 39.11328z" stroke="#000000" stroke-width="0.07201438" fill="#FFFCF8" fill-rule="winding" /><path transform="matrix(1 0 0 -1 0 595)" d="M213.3219 38.89746L213.3219 24.50879" stroke="#000000" stroke-width="0.07201438" stroke-linecap="round" fill="none" /><path transform="matrix(1 0 0 -1 0 595)" d="M213.3219 556.8833L213.3219 571.272" stroke="#000000" stroke-width="0.07201438" stroke-linecap="round" fill="none" /><path transform="matrix(1 0 0 -1 0 595)" d="M420.4109 38.89746L420.4109 24.50879" stroke="#000000" stroke-width="0.07201438" stroke-linecap="round" fill="none" /><path transform="matrix(1 0 0 -1 0 595)" d="M420.4109 556.8833L420.4109 571.272" stroke="#000000" stroke-width="0.07201438" stroke-linecap="round" fill="none" /><path transform="matrix(1 0 0 -1 0 595)" d="M627.5 38.89746L627.5 24.50879" stroke="#000000" stroke-width="0.07201438" stroke-linecap="round" fill="none" /><path transform="matrix(1 0 0 -1 0 595)" d="M627.5 556.8833L627.5 571.272" stroke="#000000" stroke-width="0.07201438" stroke-linecap="round" fill="none" /><path transform="matrix(1 0 0 -1 0 595)" d="M20.63912 161.1997L6.232927 161.1997" stroke="#000000" stroke-width="0.07201438" stroke-linecap="round" fill="none" /><path transform="matrix(1 0 0 -1 0 595)" d="M820.1827 161.1997L834.5889 161.1997" stroke="#000000" stroke-width="0.07201438" stroke-linecap="round" fill="none" /><path transform="matrix(1 0 0 -1 0 595)" d="M20.63912 297.8906L6.232927 297.8906" stroke="#000000" stroke-width="0.07201438" stroke-linecap="round" fill="none" /><path transform="matrix(1 0 0 -1 0 595)" d="M820.1827 297.8906L834.5889 297.8906" stroke="#000000" stroke-width="0.07201438" stroke-linecap="round" fill="none" /><path transform="matrix(1 0 0 -1 0 595)" d="M20.63912 434.5811L6.232927 434.5811" stroke="#000000" stroke-width="0.07201438" stroke-linecap="round" fill="none" /><path transform="matrix(1 0 0 -1 0 595)" d="M820.1827 434.5811L834.5889 434.5811" stroke="#000000" stroke-width="0.07201438" stroke-linecap="round" fill="none" /><g clip-path="url(#3)"></g><path transform="matrix(1 0 0 -1 0 595)" d="M568.0744 96.45117L820.1827 96.45117" stroke="#000000" stroke-width="0.07201438" stroke-linecap="round" fill="none" /><path transform="matrix(1 0 0 -1 0 595)" d="M568.0744 74.86865L820.1827 74.86865" stroke="#000000" stroke-width="0.07201438" stroke-linecap="round" fill="none" /><path transform="matrix(1 0 0 -1 0 595)" d="M568.0744 53.28613L820.1827 53.28613" stroke="#000000" stroke-width="0.07201438" stroke-linecap="round" fill="none" /><path transform="matrix(1 0 0 -1 0 595)" d="M568.0744 46.0918L820.1827 46.0918" stroke="#000000" stroke-width="0.07201438" stroke-linecap="round" fill="none" /><path transform="matrix(1 0 0 -1 0 595)" d="M568.0744 38.89746L568.0744 96.45117" stroke="#000000" stroke-width="0.07201438" stroke-linecap="round" fill="none" /><path transform="matrix(1 0 0 -1 0 595)" d="M748.1517 53.28613L748.1517 74.86865" stroke="#000000" stroke-width="0.07201438" stroke-linecap="round" fill="none" /><path transform="matrix(1 0 0 -1 0 595)" d="M604.0899 53.28613L604.0899 74.86865" stroke="#000000" stroke-width="0.07201438" stroke-linecap="round" fill="none" /><path transform="matrix(1 0 0 -1 0 595)" d="M712.1363 38.89746L712.1363 53.28613" stroke="#000000" stroke-width="0.07201438" stroke-linecap="round" fill="none" /><path transform="matrix(1 0 0 -1 0 595)" d="M373.5188 362.6387L438.1306 362.6387L438.1306 362.6387L438.1306 240.5522L438.1306 240.5522L373.5188 240.5522z" stroke="#800000" stroke-width="0.07201438" fill="#FFFFB0" fill-rule="winding" /><path transform="matrix(1 0 0 -1 0 595)" d="M438.4186 269.1138L452.8249 269.1138" stroke="#000000" stroke-width="0.720328" stroke-linecap="round" fill="none" /><path transform="matrix(1 0 0 -1 0 595)" d="M373.5908 269.1138L359.1846 269.1138" stroke="#000000" stroke-width="0.720328" stroke-linecap="round" fill="none" /><path transform="matrix(1 0 0 -1 0 595)" d="M373.5908 276.3076L359.1846 276.3076" stroke="#000000" stroke-width="0.720328" stroke-linecap="round" fill="none" /><path transform="matrix(1 0 0 -1 0 595)" d="M373.5908 283.5024L359.1846 283.5024" stroke="#000000" stroke-width="0.720328" stroke-linecap="round" fill="none" /><path transform="matrix(1 0 0 -1 0 595)" d="M373.5908 290.6963L359.1846 290.6963" stroke="#000000" stroke-width="0.720328" stroke-linecap="round" fill="none" /><path transform="matrix(1 0 0 -1 0 595)" d="M373.5908 297.8906L359.1846 297.8906" stroke="#000000" stroke-width="0.720328" stroke-linecap="round" fill="none" /><path transform="matrix(1 0 0 -1 0 595)" d="M373.5908 305.085L359.1846 305.085" stroke="#000000" stroke-width="0.720328" stroke-linecap="round" fill="none" /><path transform="matrix(1 0 0 -1 0 595)" d="M373.5908 312.2788L359.1846 312.2788" stroke="#000000" stroke-width="0.720328" stroke-linecap="round" fill="none" /><path transform="matrix(1 0 0 -1 0 595)" d="M373.5908 319.4736L359.1846 319.4736" stroke="#000000" stroke-width="0.720328" stroke-linecap="round" fill="none" /><path transform="matrix(1 0 0 -1 0 595)" d="M438.4186 276.3076L452.8249 276.3076" stroke="#000000" stroke-width="0.720328" stroke-linecap="round" fill="none" /><path transform="matrix(1 0 0 -1 0 595)" d="M438.4186 283.5024L452.8249 283.5024" stroke="#000000" stroke-width="0.720328" stroke-linecap="round" fill="none" /><path transform="matrix(1 0 0 -1 0 595)" d="M438.4186 290.6963L452.8249 290.6963" stroke="#000000" stroke-width="0.720328" stroke-linecap="round" fill="none" /><path transform="matrix(1 0 0 -1 0 595)" d="M438.4186 297.8906L452.8249 297.8906" stroke="#000000" stroke-width="0.720328" stroke-linecap="round" fill="none" /><path transform="matrix(1 0 0 -1 0 595)" d="M438.4186 305.085L452.8249 305.085" stroke="#000000" stroke-width="0.720328" stroke-linecap="round" fill="none" /><path transform="matrix(1 0 0 -1 0 595)" d="M438.4186 312.2788L452.8249 312.2788" stroke="#000000" stroke-width="0.720328" stroke-linecap="round" fill="none" /><path transform="matrix(1 0 0 -1 0 595)" d="M438.4186 319.4736L452.8249 319.4736" stroke="#000000" stroke-width="0.720328" stroke-linecap="round" fill="none" /><path transform="matrix(1 0 0 -1 0 595)" d="M424.0125 240.3364L424.0125 225.9482" stroke="#000000" stroke-width="0.720328" stroke-linecap="round" fill="none" /><path transform="matrix(1 0 0 -1 0 595)" d="M416.8094 240.3364L416.8094 225.9482" stroke="#000000" stroke-width="0.720328" stroke-linecap="round" fill="none" /><path transform="matrix(1 0 0 -1 0 595)" d="M409.6063 240.3364L409.6063 225.9482" stroke="#000000" stroke-width="0.720328" stroke-linecap="round" fill="none" /><path transform="matrix(1 0 0 -1 0 595)" d="M402.4032 240.3364L402.4032 225.9482" stroke="#000000" stroke-width="0.720328" stroke-linecap="round" fill="none" /><path transform="matrix(1 0 0 -1 0 595)" d="M395.2001 240.3364L395.2001 225.9482" stroke="#000000" stroke-width="0.720328" stroke-linecap="round" fill="none" /><path transform="matrix(1 0 0 -1 0 595)" d="M387.997 240.3364L387.997 225.9482" stroke="#000000" stroke-width="0.720328" stroke-linecap="round" fill="none" /><path transform="matrix(1 0 0 -1 0 595)" d="M428.3344 326.6675L428.3344 358.3223L428.3344 358.3223L424.0125 358.3223L424.0125 358.3223L424.0125 343.9336L424.0125 343.9336L419.6906 343.9336L419.6906 343.9336L419.6906 358.3223L419.6906 358.3223L415.3687 358.3223L415.3687 358.3223L415.3687 343.9336L415.3687 343.9336L411.0469 343.9336L411.0469 343.9336L411.0469 358.3223L411.0469 358.3223L406.7251 358.3223L406.7251 358.3223L406.7251 343.9336L406.7251 343.9336L402.4032 343.9336L402.4032 343.9336L402.4032 358.3223L402.4032 358.3223L390.8782 358.3223" stroke="#0C0087" stroke-width="0.720328" stroke-linecap="round" fill="none" /><path transform="matrix(1 0 0 -1 0 595)" d="M428.3344 335.3008L405.2844 335.3008" stroke="#0C0087" stroke-width="0.720328" stroke-linecap="round" fill="none" /><path transform="matrix(1 0 0 -1 0 595)" d="M697.6581 513.7183L719.0512 513.7183L719.0512 513.7183L719.0512 449.2578L719.0512 449.2578L697.6581 449.2578z" stroke="#800000" stroke-width="0.07201438" fill="#FFFFB0" fill-rule="winding" /><path transform="matrix(1 0 0 -1 0 595)" d="M697.73 506.5234L676.1208 506.5234" stroke="#000000" stroke-width="0.720328" stroke-linecap="round" fill="none" /><path transform="matrix(1 0 0 -1 0 595)" d="M697.73 499.3296L676.1208 499.3296" stroke="#000000" stroke-width="0.720328" stroke-linecap="round" fill="none" /><path transform="matrix(1 0 0 -1 0 595)" d="M697.73 492.1353L676.1208 492.1353" stroke="#000000" stroke-width="0.720328" stroke-linecap="round" fill="none" /><path transform="matrix(1 0 0 -1 0 595)" d="M697.73 484.9409L676.1208 484.9409" stroke="#000000" stroke-width="0.720328" stroke-linecap="round" fill="none" /><path transform="matrix(1 0 0 -1 0 595)" d="M697.73 477.7471L676.1208 477.7471" stroke="#000000" stroke-width="0.720328" stroke-linecap="round" fill="none" /><path transform="matrix(1 0 0 -1 0 595)" d="M697.73 470.5522L676.1208 470.5522" stroke="#000000" stroke-width="0.720328" stroke-linecap="round" fill="none" /><path transform="matrix(1 0 0 -1 0 595)" d="M697.73 463.3584L676.1208 463.3584" stroke="#000000" stroke-width="0.720328" stroke-linecap="round" fill="none" /><path transform="matrix(1 0 0 -1 0 595)" d="M697.73 456.1641L676.1208 456.1641" stroke="#000000" stroke-width="0.720328" stroke-linecap="round" fill="none" /><path transform="matrix(1 0 0 -1 0 595)" d="M697.6581 420.1929L719.0512 420.1929L719.0512 420.1929L719.0512 355.6602L719.0512 355.6602L697.6581 355.6602z" stroke="#800000" stroke-width="0.07201438" fill="#FFFFB0" fill-rule="winding" /><path transform="matrix(1 0 0 -1 0 595)" d="M697.73 412.9985L676.1208 412.9985" stroke="#000000" stroke-width="0.720328" stroke-linecap="round" fill="none" /><path transform="matrix(1 0 0 -1 0 595)" d="M697.73 405.8047L676.1208 405.8047" stroke="#000000" stroke-width="0.720328" stroke-linecap="round" fill="none" /><path transform="matrix(1 0 0 -1 0 595)" d="M697.73 398.6099L676.1208 398.6099" stroke="#000000" stroke-width="0.720328" stroke-linecap="round" fill="none" /><path transform="matrix(1 0 0 -1 0 595)" d="M697.73 391.416L676.1208 391.416" stroke="#000000" stroke-width="0.720328" stroke-linecap="round" fill="none" /><path transform="matrix(1 0 0 -1 0 595)" d="M697.73 384.2212L676.1208 384.2212" stroke="#000000" stroke-width="0.720328" stroke-linecap="round" fill="none" /><path transform="matrix(1 0 0 -1 0 595)" d="M697.73 377.0273L676.1208 377.0273" stroke="#000000" stroke-width="0.720328" stroke-linecap="round" fill="none" /><path transform="matrix(1 0 0 -1 0 595)" d="M697.73 369.833L676.1208 369.833" stroke="#000000" stroke-width="0.720328" stroke-linecap="round" fill="none" /><path transform="matrix(1 0 0 -1 0 595)" d="M697.73 362.6387L676.1208 362.6387" stroke="#000000" stroke-width="0.720328" stroke-linecap="round" fill="none" /><path transform="matrix(1 0 0 -1 0 595)" d="M762.558 513.7183L783.8792 513.7183L783.8792 513.7183L783.8792 449.2578L783.8792 449.2578L762.558 449.2578z" stroke="#800000" stroke-width="0.07201438" fill="#FFFFB0" fill-rule="winding" /><path transform="matrix(1 0 0 -1 0 595)" d="M762.558 506.5234L740.9487 506.5234" stroke="#000000" stroke-width="0.720328" stroke-linecap="round" fill="none" /><path transform="matrix(1 0 0 -1 0 595)" d="M762.558 499.3296L740.9487 499.3296" stroke="#000000" stroke-width="0.720328" stroke-linecap="round" fill="none" /><path transform="matrix(1 0 0 -1 0 595)" d="M762.558 492.1353L740.9487 492.1353" stroke="#000000" stroke-width="0.720328" stroke-linecap="round" fill="none" /><path transform="matrix(1 0 0 -1 0 595)" d="M762.558 484.9409L740.9487 484.9409" stroke="#000000" stroke-width="0.720328" stroke-linecap="round" fill="none" /><path transform="matrix(1 0 0 -1 0 595)" d="M762.558 477.7471L740.9487 477.7471" stroke="#000000" stroke-width="0.720328" stroke-linecap="round" fill="none" /><path transform="matrix(1 0 0 -1 0 595)" d="M762.558 470.5522L740.9487 470.5522" stroke="#000000" stroke-width="0.720328" stroke-linecap="round" fill="none" /><path transform="matrix(1 0 0 -1 0 595)" d="M762.558 463.3584L740.9487 463.3584" stroke="#000000" stroke-width="0.720328" stroke-linecap="round" fill="none" /><path transform="matrix(1 0 0 -1 0 595)" d="M762.558 456.1641L740.9487 456.1641" stroke="#000000" stroke-width="0.720328" stroke-linecap="round" fill="none" /><path transform="matrix(1 0 0 -1 0 595)" d="M762.558 420.1929L783.8792 420.1929L783.8792 420.1929L783.8792 355.6602L783.8792 355.6602L762.558 355.6602z" stroke="#800000" stroke-width="0.07201438" fill="#FFFFB0" fill-rule="winding" /><path transform="matrix(1 0 0 -1 0 595)" d="M762.558 412.9985L740.9487 412.9985" stroke="#000000" stroke-width="0.720328" stroke-linecap="round" fill="none" /><path transform="matrix(1 0 0 -1 0 595)" d="M762.558 405.8047L740.9487 405.8047" stroke="#000000" stroke-width="0.720328" stroke-linecap="round" fill="none" /><path transform="matrix(1 0 0 -1 0 595)" d="M762.558 398.6099L740.9487 398.6099" stroke="#000000" stroke-width="0.720328" stroke-linecap="round" fill="none" /><path transform="matrix(1 0 0 -1 0 595)" d="M762.558 391.416L740.9487 391.416" stroke="#000000" stroke-width="0.720328" stroke-linecap="round" fill="none" /><path transform="matrix(1 0 0 -1 0 595)" d="M762.558 384.2212L740.9487 384.2212" stroke="#000000" stroke-width="0.720328" stroke-linecap="round" fill="none" /><path transform="matrix(1 0 0 -1 0 595)" d="M762.558 377.0273L740.9487 377.0273" stroke="#000000" stroke-width="0.720328" stroke-linecap="round" fill="none" /><path transform="matrix(1 0 0 -1 0 595)" d="M762.558 369.833L740.9487 369.833" stroke="#000000" stroke-width="0.720328" stroke-linecap="round" fill="none" /><path transform="matrix(1 0 0 -1 0 595)" d="M762.558 362.6387L740.9487 362.6387" stroke="#000000" stroke-width="0.720328" stroke-linecap="round" fill="none" /><path transform="matrix(1 0 0 -1 0 595)" d="M207.9196 341.0562L222.0376 341.0562L222.0376 341.0562L222.0376 312.5669L222.0376 312.5669L207.9196 312.5669z" stroke="#800000" stroke-width="0.07201438" fill="#FFFFB0" fill-rule="winding" /><path transform="matrix(1 0 0 -1 0 595)" d="M207.9196 333.8618L186.3103 333.8618" stroke="#000000" stroke-width="0.720328" stroke-linecap="round" fill="none" /><path transform="matrix(1 0 0 -1 0 595)" d="M207.9196 326.6675L186.3103 326.6675" stroke="#000000" stroke-width="0.720328" stroke-linecap="round" fill="none" /><path transform="matrix(1 0 0 -1 0 595)" d="M207.9196 319.4736L186.3103 319.4736" stroke="#000000" stroke-width="0.720328" stroke-linecap="round" fill="none" /><path transform="matrix(1 0 0 -1 0 595)" d="M164.701 326.6675L171.9041 326.6675" stroke="#000000" stroke-width="0.720328" stroke-linecap="round" fill="none" /><path transform="matrix(1 0 0 -1 0 595)" d="M150.2948 326.6675L143.0918 326.6675" stroke="#000000" stroke-width="0.720328" stroke-linecap="round" fill="none" /><path transform="matrix(1 0 0 -1 0 595)" d="M164.701 323.7896L164.701 329.5449L164.701 329.5449L150.2948 329.5449L150.2948 329.5449L150.2948 323.7896L150.2948 323.7896L164.701 323.7896" stroke="#0000FF" stroke-width="0.720328" stroke-linecap="round" fill="none" /><path transform="matrix(1 0 0 -1 0 595)" d="M81.86543 333.8618L89.06853 333.8618" stroke="#800000" stroke-width="0.720328" stroke-linecap="round" fill="none" /><path transform="matrix(1 0 0 -1 0 595)" d="M85.46697 326.6675L85.46697 333.8618" stroke="#800000" stroke-width="0.720328" stroke-linecap="round" fill="none" /><path transform="matrix(1 0 0 -1 0 595)" d="M128.6856 353.2866L128.6856 343.2144" stroke="#0000FF" stroke-width="0.07201438" stroke-linecap="round" fill="none" /><path transform="matrix(1 0 0 -1 0 595)" d="M114.2794 348.25L121.4825 348.25" stroke="#0000FF" stroke-width="0.07201438" stroke-linecap="round" fill="none" /><path transform="matrix(1 0 0 -1 0 595)" d="M128.6856 348.25L135.8886 348.25" stroke="#0000FF" stroke-width="0.07201438" stroke-linecap="round" fill="none" /><path transform="matrix(1 0 0 -1 0 595)" d="M128.6856 348.25L121.4825 343.2144L121.4825 343.2144L121.4825 353.2866z" stroke="none" fill="#0000FF" fill-rule="evenodd" /><path transform="matrix(1 0 0 -1 0 595)" d="M128.6856 348.25L128.6856 348.25L128.6856 348.25L121.4825 343.2144L121.4825 343.2144L121.4825 353.2866L121.4825 353.2866L128.6856 348.25z" stroke="#0000FF" stroke-width="0.07201438" stroke-linecap="round" fill="none" /><path transform="matrix(1 0 0 -1 0 595)" d="M138.7699 352.5669L137.3292 354.0054L137.3292 354.0054L140.2105 355.4448z" stroke="none" fill="#0000FF" fill-rule="evenodd" /><path transform="matrix(1 0 0 -1 0 595)" d="M137.3292 354.0054L137.3292 354.0054L137.3292 354.0054L140.2105 355.4448L140.2105 355.4448L138.7699 352.5669L138.7699 352.5669L137.3292 354.0054z" stroke="#0000FF" stroke-width="0.07201438" stroke-linecap="round" fill="none" /><path transform="matrix(1 0 0 -1 0 595)" d="M134.448 352.5669L133.0074 354.0054L133.0074 354.0054L135.8886 355.4448z" stroke="none" fill="#0000FF" fill-rule="evenodd" /><path transform="matrix(1 0 0 -1 0 595)" d="M133.0074 354.0054L133.0074 354.0054L133.0074 354.0054L135.8886 355.4448L135.8886 355.4448L134.448 352.5669L134.448 352.5669L133.0074 354.0054z" stroke="#0000FF" stroke-width="0.07201438" stroke-linecap="round" fill="none" /><path transform="matrix(1 0 0 -1 0 595)" d="M135.1683 354.7251L130.8465 350.4087" stroke="#0000FF" stroke-width="0.07201438" stroke-linecap="round" fill="none" /><path transform="matrix(1 0 0 -1 0 595)" d="M139.4902 354.7251L135.1683 350.4087" stroke="#0000FF" stroke-width="0.07201438" stroke-linecap="round" fill="none" /><path transform="matrix(1 0 0 -1 0 595)" d="M139.4902 333.1426L135.1683 328.8257" stroke="#0000FF" stroke-width="0.07201438" stroke-linecap="round" fill="none" /><path transform="matrix(1 0 0 -1 0 595)" d="M135.1683 333.1426L130.8465 328.8257" stroke="#0000FF" stroke-width="0.07201438" stroke-linecap="round" fill="none" /><path transform="matrix(1 0 0 -1 0 595)" d="M134.448 330.9844L133.0074 332.4229L133.0074 332.4229L135.8886 333.8618z" stroke="none" fill="#0000FF" fill-rule="evenodd" /><path transform="matrix(1 0 0 -1 0 595)" d="M133.0074 332.4229L133.0074 332.4229L133.0074 332.4229L135.8886 333.8618L135.8886 333.8618L134.448 330.9844L134.448 330.9844L133.0074 332.4229z" stroke="#0000FF" stroke-width="0.07201438" stroke-linecap="round" fill="none" /><path transform="matrix(1 0 0 -1 0 595)" d="M138.7699 330.9844L137.3292 332.4229L137.3292 332.4229L140.2105 333.8618z" stroke="none" fill="#0000FF" fill-rule="evenodd" /><path transform="matrix(1 0 0 -1 0 595)" d="M137.3292 332.4229L137.3292 332.4229L137.3292 332.4229L140.2105 333.8618L140.2105 333.8618L138.7699 330.9844L138.7699 330.9844L137.3292 332.4229z" stroke="#0000FF" stroke-width="0.07201438" stroke-linecap="round" fill="none" /><path transform="matrix(1 0 0 -1 0 595)" d="M128.6856 326.6675L121.4825 321.6313L121.4825 321.6313L121.4825 331.7036z" stroke="none" fill="#0000FF" fill-rule="evenodd" /><path transform="matrix(1 0 0 -1 0 595)" d="M128.6856 326.6675L128.6856 326.6675L128.6856 326.6675L121.4825 321.6313L121.4825 321.6313L121.4825 331.7036L121.4825 331.7036L128.6856 326.6675z" stroke="#0000FF" stroke-width="0.07201438" stroke-linecap="round" fill="none" /><path transform="matrix(1 0 0 -1 0 595)" d="M128.6856 326.6675L135.8886 326.6675" stroke="#0000FF" stroke-width="0.07201438" stroke-linecap="round" fill="none" /><path transform="matrix(1 0 0 -1 0 595)" d="M114.2794 326.6675L121.4825 326.6675" stroke="#0000FF" stroke-width="0.07201438" stroke-linecap="round" fill="none" /><path transform="matrix(1 0 0 -1 0 595)" d="M128.6856 331.7036L128.6856 321.6313" stroke="#0000FF" stroke-width="0.07201438" stroke-linecap="round" fill="none" /><path transform="matrix(1 0 0 -1 0 595)" d="M139.4902 311.5596L135.1683 307.2432" stroke="#0000FF" stroke-width="0.07201438" stroke-linecap="round" fill="none" /><path transform="matrix(1 0 0 -1 0 595)" d="M135.1683 311.5596L130.8465 307.2432" stroke="#0000FF" stroke-width="0.07201438" stroke-linecap="round" fill="none" /><path transform="matrix(1 0 0 -1 0 595)" d="M134.448 309.4014L133.0074 310.8403L133.0074 310.8403L135.8886 312.2788z" stroke="none" fill="#0000FF" fill-rule="evenodd" /><path transform="matrix(1 0 0 -1 0 595)" d="M133.0074 310.8403L133.0074 310.8403L133.0074 310.8403L135.8886 312.2788L135.8886 312.2788L134.448 309.4014L134.448 309.4014L133.0074 310.8403z" stroke="#0000FF" stroke-width="0.07201438" stroke-linecap="round" fill="none" /><path transform="matrix(1 0 0 -1 0 595)" d="M138.7699 309.4014L137.3292 310.8403L137.3292 310.8403L140.2105 312.2788z" stroke="none" fill="#0000FF" fill-rule="evenodd" /><path transform="matrix(1 0 0 -1 0 595)" d="M137.3292 310.8403L137.3292 310.8403L137.3292 310.8403L140.2105 312.2788L140.2105 312.2788L138.7699 309.4014L138.7699 309.4014L137.3292 310.8403z" stroke="#0000FF" stroke-width="0.07201438" stroke-linecap="round" fill="none" /><path transform="matrix(1 0 0 -1 0 595)" d="M128.6856 305.085L121.4825 300.0488L121.4825 300.0488L121.4825 310.1206z" stroke="none" fill="#0000FF" fill-rule="evenodd" /><path transform="matrix(1 0 0 -1 0 595)" d="M128.6856 305.085L128.6856 305.085L128.6856 305.085L121.4825 300.0488L121.4825 300.0488L121.4825 310.1206L121.4825 310.1206L128.6856 305.085z" stroke="#0000FF" stroke-width="0.07201438" stroke-linecap="round" fill="none" /><path transform="matrix(1 0 0 -1 0 595)" d="M128.6856 305.085L135.8886 305.085" stroke="#0000FF" stroke-width="0.07201438" stroke-linecap="round" fill="none" /><path transform="matrix(1 0 0 -1 0 595)" d="M114.2794 305.085L121.4825 305.085" stroke="#0000FF" stroke-width="0.07201438" stroke-linecap="round" fill="none" /><path transform="matrix(1 0 0 -1 0 595)" d="M128.6856 310.1206L128.6856 300.0488" stroke="#0000FF" stroke-width="0.07201438" stroke-linecap="round" fill="none" /><path transform="matrix(1 0 0 -1 0 595)" d="M114.2794 348.25L114.2794 305.085" stroke="#0000FF" stroke-width="0.07201438" stroke-linecap="round" fill="none" /><path transform="matrix(1 0 0 -1 0 595)" d="M114.2794 326.6675L107.0763 326.6675" stroke="#000000" stroke-width="0.720328" stroke-linecap="round" fill="none" /><path transform="matrix(1 0 0 -1 0 595)" d="M139.4902 348.25L143.0918 348.25" stroke="#000000" stroke-width="0.720328" stroke-linecap="round" fill="none" /><path transform="matrix(1 0 0 -1 0 595)" d="M139.4902 326.6675L143.0918 326.6675" stroke="#000000" stroke-width="0.720328" stroke-linecap="round" fill="none" /><path transform="matrix(1 0 0 -1 0 595)" d="M139.4902 305.085L143.0918 305.085" stroke="#000000" stroke-width="0.720328" stroke-linecap="round" fill="none" /><path transform="matrix(1 0 0 -1 0 595)" d="M164.701 348.25L171.9041 348.25" stroke="#000000" stroke-width="0.720328" stroke-linecap="round" fill="none" /><path transform="matrix(1 0 0 -1 0 595)" d="M150.2948 348.25L143.0918 348.25" stroke="#000000" stroke-width="0.720328" stroke-linecap="round" fill="none" /><path transform="matrix(1 0 0 -1 0 595)" d="M164.701 345.3726L164.701 351.1279L164.701 351.1279L150.2948 351.1279L150.2948 351.1279L150.2948 345.3726L150.2948 345.3726L164.701 345.3726" stroke="#0000FF" stroke-width="0.720328" stroke-linecap="round" fill="none" /><path transform="matrix(1 0 0 -1 0 595)" d="M164.701 305.085L171.9041 305.085" stroke="#000000" stroke-width="0.720328" stroke-linecap="round" fill="none" /><path transform="matrix(1 0 0 -1 0 595)" d="M150.2948 305.085L143.0918 305.085" stroke="#000000" stroke-width="0.720328" stroke-linecap="round" fill="none" /><path transform="matrix(1 0 0 -1 0 595)" d="M164.701 302.207L164.701 307.9624L164.701 307.9624L150.2948 307.9624L150.2948 307.9624L150.2948 302.207L150.2948 302.207L164.701 302.207" stroke="#0000FF" stroke-width="0.720328" stroke-linecap="round" fill="none" /><path transform="matrix(1 0 0 -1 0 595)" d="M150.2948 513.7183L200.4284 513.7183L200.4284 513.7183L200.4284 449.2578L200.4284 449.2578L150.2948 449.2578z" stroke="#800000" stroke-width="0.07201438" fill="#FFFFB0" fill-rule="winding" /><path transform="matrix(1 0 0 -1 0 595)" d="M150.2948 506.5234L128.6856 506.5234" stroke="#000000" stroke-width="0.720328" stroke-linecap="round" fill="none" /><path transform="matrix(1 0 0 -1 0 595)" d="M150.2948 499.3296L128.6856 499.3296" stroke="#000000" stroke-width="0.720328" stroke-linecap="round" fill="none" /><path transform="matrix(1 0 0 -1 0 595)" d="M150.2948 492.1353L128.6856 492.1353" stroke="#000000" stroke-width="0.720328" stroke-linecap="round" fill="none" /><path transform="matrix(1 0 0 -1 0 595)" d="M150.2948 484.9409L128.6856 484.9409" stroke="#000000" stroke-width="0.720328" stroke-linecap="round" fill="none" /><path transform="matrix(1 0 0 -1 0 595)" d="M150.2948 477.7471L128.6856 477.7471" stroke="#000000" stroke-width="0.720328" stroke-linecap="round" fill="none" /><path transform="matrix(1 0 0 -1 0 595)" d="M150.2948 470.5522L128.6856 470.5522" stroke="#000000" stroke-width="0.720328" stroke-linecap="round" fill="none" /><path transform="matrix(1 0 0 -1 0 595)" d="M150.2948 463.3584L128.6856 463.3584" stroke="#000000" stroke-width="0.720328" stroke-linecap="round" fill="none" /><path transform="matrix(1 0 0 -1 0 595)" d="M150.2948 456.1641L128.6856 456.1641" stroke="#000000" stroke-width="0.720328" stroke-linecap="round" fill="none" /><path transform="matrix(1 0 0 -1 0 595)" d="M200.7165 456.1641L222.3258 456.1641" stroke="#000000" stroke-width="0.720328" stroke-linecap="round" fill="none" /><path transform="matrix(1 0 0 -1 0 595)" d="M200.7165 463.3584L222.3258 463.3584" stroke="#000000" stroke-width="0.720328" stroke-linecap="round" fill="none" /><path transform="matrix(1 0 0 -1 0 595)" d="M200.7165 470.5522L222.3258 470.5522" stroke="#000000" stroke-width="0.720328" stroke-linecap="round" fill="none" /><path transform="matrix(1 0 0 -1 0 595)" d="M200.7165 477.7471L222.3258 477.7471" stroke="#000000" stroke-width="0.720328" stroke-linecap="round" fill="none" /><path transform="matrix(1 0 0 -1 0 595)" d="M200.7165 484.9409L222.3258 484.9409" stroke="#000000" stroke-width="0.720328" stroke-linecap="round" fill="none" /><path transform="matrix(1 0 0 -1 0 595)" d="M200.7165 492.1353L222.3258 492.1353" stroke="#000000" stroke-width="0.720328" stroke-linecap="round" fill="none" /><path transform="matrix(1 0 0 -1 0 595)" d="M200.7165 499.3296L222.3258 499.3296" stroke="#000000" stroke-width="0.720328" stroke-linecap="round" fill="none" /><path transform="matrix(1 0 0 -1 0 595)" d="M200.7165 506.5234L222.3258 506.5234" stroke="#000000" stroke-width="0.720328" stroke-linecap="round" fill="none" /><path transform="matrix(1 0 0 -1 0 595)" d="M42.24841 513.7183L63.56954 513.7183L63.56954 513.7183L63.56954 470.8403L63.56954 470.8403L42.24841 470.8403z" stroke="#800000" stroke-width="0.07201438" fill="#FFFFB0" fill-rule="winding" /><path transform="matrix(1 0 0 -1 0 595)" d="M63.85769 477.7471L78.26388 477.7471" stroke="#000000" stroke-width="0.720328" stroke-linecap="round" fill="none" /><path transform="matrix(1 0 0 -1 0 595)" d="M63.85769 484.9409L78.26388 484.9409" stroke="#000000" stroke-width="0.720328" stroke-linecap="round" fill="none" /><path transform="matrix(1 0 0 -1 0 595)" d="M63.85769 492.1353L78.26388 492.1353" stroke="#000000" stroke-width="0.720328" stroke-linecap="round" fill="none" /><path transform="matrix(1 0 0 -1 0 595)" d="M63.85769 499.3296L78.26388 499.3296" stroke="#000000" stroke-width="0.720328" stroke-linecap="round" fill="none" /><path transform="matrix(1 0 0 -1 0 595)" d="M63.85769 506.5234L78.26388 506.5234" stroke="#000000" stroke-width="0.720328" stroke-linecap="round" fill="none" /><path transform="matrix(1 0 0 -1 0 595)" d="M99.87317 513.7183L114.2794 513.7183" stroke="#800000" stroke-width="0.720328" stroke-linecap="round" fill="none" /><path transform="matrix(1 0 0 -1 0 595)" d="M102.0341 515.8765L112.1184 515.8765" stroke="#800000" stroke-width="0.720328" stroke-linecap="round" fill="none" /><path transform="matrix(1 0 0 -1 0 595)" d="M104.195 518.0347L109.9575 518.0347" stroke="#800000" stroke-width="0.720328" stroke-linecap="round" fill="none" /><path transform="matrix(1 0 0 -1 0 595)" d="M106.3559 520.1929L107.7966 520.1929" stroke="#800000" stroke-width="0.720328" stroke-linecap="round" fill="none" /><path transform="matrix(1 0 0 -1 0 595)" d="M107.0763 506.5234L107.0763 513.7183" stroke="#800000" stroke-width="0.720328" stroke-linecap="round" fill="none" /><path transform="matrix(1 0 0 -1 0 595)" d="M108.2288 506.6318C 108.2288 505.897 107.6321 505.3008 106.8961 505.3008C 106.1602 505.3008 105.5636 505.897 105.5636 506.6318C 105.5636 507.3667 106.1602 507.9629 106.8961 507.9629C 107.6321 507.9629 108.2288 507.3667 108.2288 506.6318" stroke="#000080" stroke-width="0.07201438" fill="#000080" fill-rule="winding" /><path transform="matrix(1 0 0 -1 0 595)" d="M85.46697 459.7612L85.46697 452.5669" stroke="#800000" stroke-width="0.720328" stroke-linecap="round" fill="none" /><path transform="matrix(1 0 0 -1 0 595)" d="M78.26388 456.1641L85.46697 456.1641" stroke="#800000" stroke-width="0.720328" stroke-linecap="round" fill="none" /><path transform="matrix(1 0 0 -1 0 595)" d="M225.9274 528.1064L233.1304 528.1064" stroke="#800000" stroke-width="0.720328" stroke-linecap="round" fill="none" /><path transform="matrix(1 0 0 -1 0 595)" d="M229.5289 520.9121L229.5289 528.1064" stroke="#800000" stroke-width="0.720328" stroke-linecap="round" fill="none" /><path transform="matrix(1 0 0 -1 0 595)" d="M690.527 175.5884L690.527 189.9771" stroke="#11037F" stroke-width="0.720328" stroke-linecap="round" fill="none" /><path transform="matrix(1 0 0 -1 0 595)" d="M683.3239 175.5884L690.527 179.1855" stroke="#11037F" stroke-width="0.720328" stroke-linecap="round" fill="none" /><path transform="matrix(1 0 0 -1 0 595)" d="M683.3239 189.9771L690.527 185.6602" stroke="#11037F" stroke-width="0.720328" stroke-linecap="round" fill="none" /><path transform="matrix(1 0 0 -1 0 595)" d="M686.2052 185.6602L688.3661 189.9771L688.3661 189.9771L683.3239 189.9771L683.3239 189.9771L686.2052 185.6602" stroke="#11037F" stroke-width="0.720328" stroke-linecap="round" fill="none" /><path transform="matrix(1 0 0 -1 0 595)" d="M690.527 182.7822L712.1363 182.7822" stroke="#000000" stroke-width="0.720328" stroke-linecap="round" fill="none" /><path transform="matrix(1 0 0 -1 0 595)" d="M683.3239 189.9771L683.3239 211.5596" stroke="#000000" stroke-width="0.720328" stroke-linecap="round" fill="none" /><path transform="matrix(1 0 0 -1 0 595)" d="M683.3239 175.5884L683.3239 154.0059" stroke="#000000" stroke-width="0.720328" stroke-linecap="round" fill="none" /><path transform="matrix(1 0 0 -1 0 595)" d="M740.9487 247.5308L748.1517 247.5308" stroke="#000000" stroke-width="0.720328" stroke-linecap="round" fill="none" /><path transform="matrix(1 0 0 -1 0 595)" d="M749.3043 247.6748C 749.3043 246.9595 748.7077 246.3799 747.9717 246.3799C 747.2358 246.3799 746.6392 246.9595 746.6392 247.6748C 746.6392 248.3896 747.2358 248.9697 747.9717 248.9697C 748.7077 248.9697 749.3043 248.3896 749.3043 247.6748" stroke="#000080" stroke-width="0.07201438" fill="#000080" fill-rule="winding" /><path transform="matrix(1 0 0 -1 0 595)" d="M726.5425 247.5308L719.3394 247.5308" stroke="#000000" stroke-width="0.720328" stroke-linecap="round" fill="none" /><path transform="matrix(1 0 0 -1 0 595)" d="M740.9487 244.6533L740.9487 250.4087L740.9487 250.4087L726.5425 250.4087L726.5425 250.4087L726.5425 244.6533L726.5425 244.6533L740.9487 244.6533" stroke="#0000FF" stroke-width="0.720328" stroke-linecap="round" fill="none" /><path transform="matrix(1 0 0 -1 0 595)" d="M749.3043 247.6748C 749.3043 246.9595 748.7077 246.3799 747.9717 246.3799C 747.2358 246.3799 746.6392 246.9595 746.6392 247.6748C 746.6392 248.3896 747.2358 248.9697 747.9717 248.9697C 748.7077 248.9697 749.3043 248.3896 749.3043 247.6748" stroke="#000080" stroke-width="0.07201438" fill="#000080" fill-rule="winding" /><path transform="matrix(1 0 0 -1 0 595)" d="M690.527 254.7251L690.527 240.3364" stroke="#11037F" stroke-width="0.720328" stroke-linecap="round" fill="none" /><path transform="matrix(1 0 0 -1 0 595)" d="M683.3239 254.7251L690.527 251.1279" stroke="#11037F" stroke-width="0.720328" stroke-linecap="round" fill="none" /><path transform="matrix(1 0 0 -1 0 595)" d="M683.3239 240.3364L690.527 244.6533" stroke="#11037F" stroke-width="0.720328" stroke-linecap="round" fill="none" /><path transform="matrix(1 0 0 -1 0 595)" d="M686.2052 244.6533L688.3661 240.3364L688.3661 240.3364L683.3239 240.3364L683.3239 240.3364L686.2052 244.6533" stroke="#11037F" stroke-width="0.720328" stroke-linecap="round" fill="none" /><path transform="matrix(1 0 0 -1 0 595)" d="M690.527 247.5308L712.1363 247.5308" stroke="#000000" stroke-width="0.720328" stroke-linecap="round" fill="none" /><path transform="matrix(1 0 0 -1 0 595)" d="M683.3239 240.3364L683.3239 218.7539" stroke="#000000" stroke-width="0.720328" stroke-linecap="round" fill="none" /><path transform="matrix(1 0 0 -1 0 595)" d="M683.3239 254.7251L683.3239 276.3076" stroke="#000000" stroke-width="0.720328" stroke-linecap="round" fill="none" /><path transform="matrix(1 0 0 -1 0 595)" d="M740.9487 182.7822L748.1517 182.7822" stroke="#000000" stroke-width="0.720328" stroke-linecap="round" fill="none" /><path transform="matrix(1 0 0 -1 0 595)" d="M749.3043 182.9263C 749.3043 182.2109 748.7077 181.6313 747.9717 181.6313C 747.2358 181.6313 746.6392 182.2109 746.6392 182.9263C 746.6392 183.6416 747.2358 184.2217 747.9717 184.2217C 748.7077 184.2217 749.3043 183.6416 749.3043 182.9263" stroke="#000080" stroke-width="0.07201438" fill="#000080" fill-rule="winding" /><path transform="matrix(1 0 0 -1 0 595)" d="M726.5425 182.7822L719.3394 182.7822" stroke="#000000" stroke-width="0.720328" stroke-linecap="round" fill="none" /><path transform="matrix(1 0 0 -1 0 595)" d="M740.9487 179.9048L740.9487 185.6602L740.9487 185.6602L726.5425 185.6602L726.5425 185.6602L726.5425 179.9048L726.5425 179.9048L740.9487 179.9048" stroke="#0000FF" stroke-width="0.720328" stroke-linecap="round" fill="none" /><path transform="matrix(1 0 0 -1 0 595)" d="M749.3043 182.9263C 749.3043 182.2109 748.7077 181.6313 747.9717 181.6313C 747.2358 181.6313 746.6392 182.2109 746.6392 182.9263C 746.6392 183.6416 747.2358 184.2217 747.9717 184.2217C 748.7077 184.2217 749.3043 183.6416 749.3043 182.9263" stroke="#000080" stroke-width="0.07201438" fill="#000080" fill-rule="winding" /><path transform="matrix(1 0 0 -1 0 595)" d="M467.159 484.9409L517.3646 484.9409L517.3646 484.9409L517.3646 441.9912L517.3646 441.9912L467.159 441.9912z" stroke="#800000" stroke-width="0.07201438" fill="#FFFFB0" fill-rule="winding" /><path transform="matrix(1 0 0 -1 0 595)" d="M467.231 477.7471L445.6218 477.7471" stroke="#000000" stroke-width="0.720328" stroke-linecap="round" fill="none" /><path transform="matrix(1 0 0 -1 0 595)" d="M467.231 448.9697L445.6218 448.9697" stroke="#000000" stroke-width="0.720328" stroke-linecap="round" fill="none" /><path transform="matrix(1 0 0 -1 0 595)" d="M517.6527 477.7471L539.262 477.7471" stroke="#000000" stroke-width="0.720328" stroke-linecap="round" fill="none" /><path transform="matrix(1 0 0 -1 0 595)" d="M467.231 463.3584L445.6218 463.3584" stroke="#000000" stroke-width="0.720328" stroke-linecap="round" fill="none" /><path transform="matrix(1 0 0 -1 0 595)" d="M517.6527 448.9697L539.262 448.9697" stroke="#000000" stroke-width="0.720328" stroke-linecap="round" fill="none" /><path transform="matrix(1 0 0 -1 0 595)" d="M355.5831 477.7471L356.0153 478.3228L356.0153 478.3228L356.3754 478.8262L356.3754 478.8262L356.7356 479.2573L356.7356 479.2573L357.1678 479.6172L357.1678 479.6172L357.5279 479.9053L357.5279 479.9053L357.8881 480.1211L357.8881 480.1211L358.1761 480.3364L358.1761 480.3364L358.5363 480.4805L358.5363 480.4805L358.8244 480.5527L358.8244 480.5527L359.1846 480.6245L359.1846 480.6245L359.4727 480.6245L359.4727 480.6245L359.7608 480.6245L359.7608 480.6245L360.049 480.5527L360.049 480.5527L360.3371 480.4087L360.3371 480.4087L360.5532 480.3364L360.5532 480.3364L360.7693 480.1929L360.7693 480.1929L361.0574 480.0493L361.0574 480.0493L361.2735 479.833L361.2735 479.833L361.4896 479.6172L361.4896 479.6172L361.6336 479.4736L361.6336 479.4736L361.8498 479.2573L361.8498 479.2573L361.9938 479.0415L361.9938 479.0415L362.1378 478.8262L362.1378 478.8262L362.282 478.6821L362.282 478.6821L362.354 478.4663L362.354 478.4663L362.498 478.3228L362.498 478.3228L362.57 478.1782L362.57 478.1782L362.6421 478.0347L362.6421 478.0347L362.7141 477.8906L362.7141 477.8906L362.7861 477.8188L362.7861 477.8188L362.7861 477.7471L362.7861 477.7471L362.7861 477.7471" stroke="#0000FF" stroke-width="0.720328" stroke-linecap="round" fill="none" /><path transform="matrix(1 0 0 -1 0 595)" d="M362.7861 477.7471L362.7861 477.7471L362.7861 477.7471L362.7861 477.6748L362.7861 477.6748L362.8582 477.603L362.8582 477.603L362.9302 477.459L362.9302 477.459L363.0023 477.3149L363.0023 477.3149L363.0743 477.1714L363.0743 477.1714L363.2183 477.0273L363.2183 477.0273L363.2903 476.8115L363.2903 476.8115L363.4345 476.668L363.4345 476.668L363.5785 476.4517L363.5785 476.4517L363.7225 476.2358L363.7225 476.2358L363.9387 476.0205L363.9387 476.0205L364.0827 475.8765L364.0827 475.8765L364.2988 475.6602L364.2988 475.6602L364.5149 475.4448L364.5149 475.4448L364.803 475.3008L364.803 475.3008L365.0191 475.1567L365.0191 475.1567L365.2352 475.085L365.2352 475.085L365.5233 474.9414L365.5233 474.9414L365.8115 474.8691L365.8115 474.8691L366.0995 474.8691L366.0995 474.8691L366.3877 474.8691L366.3877 474.8691L366.7479 474.9414L366.7479 474.9414L367.036 475.0127L367.036 475.0127L367.3962 475.1567L367.3962 475.1567L367.6842 475.3726L367.6842 475.3726L368.0444 475.5884L368.0444 475.5884L368.4046 475.8765L368.4046 475.8765L368.8367 476.2358L368.8367 476.2358L369.1969 476.668L369.1969 476.668L369.5571 477.1714L369.5571 477.1714L369.9893 477.7471" stroke="#0000FF" stroke-width="0.720328" stroke-linecap="round" fill="none" /><path transform="matrix(1 0 0 -1 0 595)" d="M369.9893 477.7471L380.7939 477.7471" stroke="#000000" stroke-width="0.720328" stroke-linecap="round" fill="none" /><path transform="matrix(1 0 0 -1 0 595)" d="M381.9464 477.8906C 381.9464 477.1753 381.3658 476.5957 380.6498 476.5957C 379.9338 476.5957 379.3532 477.1753 379.3532 477.8906C 379.3532 478.606 379.9338 479.1855 380.6498 479.1855C 381.3658 479.1855 381.9464 478.606 381.9464 477.8906" stroke="#000080" stroke-width="0.07201438" fill="#000080" fill-rule="winding" /><path transform="matrix(1 0 0 -1 0 595)" d="M355.5831 477.7471L344.7784 477.7471" stroke="#000000" stroke-width="0.720328" stroke-linecap="round" fill="none" /><path transform="matrix(1 0 0 -1 0 595)" d="M381.9464 477.8906C 381.9464 477.1753 381.3658 476.5957 380.6498 476.5957C 379.9338 476.5957 379.3532 477.1753 379.3532 477.8906C 379.3532 478.606 379.9338 479.1855 380.6498 479.1855C 381.3658 479.1855 381.9464 478.606 381.9464 477.8906" stroke="#000080" stroke-width="0.07201438" fill="#000080" fill-rule="winding" /><path transform="matrix(1 0 0 -1 0 595)" d="M395.2001 461.9194L395.2001 470.5522" stroke="#000000" stroke-width="0.720328" stroke-linecap="round" fill="none" /><path transform="matrix(1 0 0 -1 0 595)" d="M395.2001 457.603L395.2001 448.9697" stroke="#000000" stroke-width="0.720328" stroke-linecap="round" fill="none" /><path transform="matrix(1 0 0 -1 0 595)" d="M391.5985 457.603L398.8016 457.603" stroke="#0000FF" stroke-width="0.720328" stroke-linecap="round" fill="none" /><path transform="matrix(1 0 0 -1 0 595)" d="M391.5985 461.9194L398.8016 461.9194" stroke="#0000FF" stroke-width="0.720328" stroke-linecap="round" fill="none" /><path transform="matrix(1 0 0 -1 0 595)" d="M416.8094 461.9194L416.8094 470.5522" stroke="#000000" stroke-width="0.720328" stroke-linecap="round" fill="none" /><path transform="matrix(1 0 0 -1 0 595)" d="M416.8094 457.603L416.8094 448.9697" stroke="#000000" stroke-width="0.720328" stroke-linecap="round" fill="none" /><path transform="matrix(1 0 0 -1 0 595)" d="M413.2078 457.603L420.4109 457.603" stroke="#0000FF" stroke-width="0.720328" stroke-linecap="round" fill="none" /><path transform="matrix(1 0 0 -1 0 595)" d="M413.2078 461.9194L420.4109 461.9194" stroke="#0000FF" stroke-width="0.720328" stroke-linecap="round" fill="none" /><path transform="matrix(1 0 0 -1 0 595)" d="M546.4651 469.1138L546.4651 477.7471" stroke="#000000" stroke-width="0.720328" stroke-linecap="round" fill="none" /><path transform="matrix(1 0 0 -1 0 595)" d="M547.6176 477.8906C 547.6176 477.1753 547.0209 476.5957 546.2851 476.5957C 545.5491 476.5957 544.9524 477.1753 544.9524 477.8906C 544.9524 478.606 545.5491 479.1855 546.2851 479.1855C 547.0209 479.1855 547.6176 478.606 547.6176 477.8906" stroke="#000080" stroke-width="0.07201438" fill="#000080" fill-rule="winding" /><path transform="matrix(1 0 0 -1 0 595)" d="M546.4651 464.7969L546.4651 456.1641" stroke="#000000" stroke-width="0.720328" stroke-linecap="round" fill="none" /><path transform="matrix(1 0 0 -1 0 595)" d="M542.8635 464.7969L550.0667 464.7969" stroke="#0000FF" stroke-width="0.720328" stroke-linecap="round" fill="none" /><path transform="matrix(1 0 0 -1 0 595)" d="M542.8635 469.1138L550.0667 469.1138" stroke="#0000FF" stroke-width="0.720328" stroke-linecap="round" fill="none" /><path transform="matrix(1 0 0 -1 0 595)" d="M547.6176 477.8906C 547.6176 477.1753 547.0209 476.5957 546.2851 476.5957C 545.5491 476.5957 544.9524 477.1753 544.9524 477.8906C 544.9524 478.606 545.5491 479.1855 546.2851 479.1855C 547.0209 479.1855 547.6176 478.606 547.6176 477.8906" stroke="#000080" stroke-width="0.07201438" fill="#000080" fill-rule="winding" /><path transform="matrix(1 0 0 -1 0 595)" d="M568.0744 469.1138L568.0744 477.7471" stroke="#000000" stroke-width="0.720328" stroke-linecap="round" fill="none" /><path transform="matrix(1 0 0 -1 0 595)" d="M569.2269 477.8906C 569.2269 477.1753 568.6465 476.5957 567.9304 476.5957C 567.2142 476.5957 566.6338 477.1753 566.6338 477.8906C 566.6338 478.606 567.2142 479.1855 567.9304 479.1855C 568.6465 479.1855 569.2269 478.606 569.2269 477.8906" stroke="#000080" stroke-width="0.07201438" fill="#000080" fill-rule="winding" /><path transform="matrix(1 0 0 -1 0 595)" d="M568.0744 464.7969L568.0744 456.1641" stroke="#000000" stroke-width="0.720328" stroke-linecap="round" fill="none" /><path transform="matrix(1 0 0 -1 0 595)" d="M564.4728 464.7969L571.6759 464.7969" stroke="#0000FF" stroke-width="0.720328" stroke-linecap="round" fill="none" /><path transform="matrix(1 0 0 -1 0 595)" d="M564.4728 469.1138L571.6759 469.1138" stroke="#0000FF" stroke-width="0.720328" stroke-linecap="round" fill="none" /><path transform="matrix(1 0 0 -1 0 595)" d="M569.2269 477.8906C 569.2269 477.1753 568.6465 476.5957 567.9304 476.5957C 567.2142 476.5957 566.6338 477.1753 566.6338 477.8906C 566.6338 478.606 567.2142 479.1855 567.9304 479.1855C 568.6465 479.1855 569.2269 478.606 569.2269 477.8906" stroke="#000080" stroke-width="0.07201438" fill="#000080" fill-rule="winding" /><path transform="matrix(1 0 0 -1 0 595)" d="M536.3808 446.0923L542.1432 451.8477" stroke="#FF0000" stroke-width="0.07201438" stroke-linecap="round" fill="none" /><path transform="matrix(1 0 0 -1 0 595)" d="M536.3808 451.8477L542.1432 446.0923" stroke="#FF0000" stroke-width="0.07201438" stroke-linecap="round" fill="none" /><path transform="matrix(1 0 0 -1 0 595)" d="M359.1846 448.9697L359.1846 434.5811" stroke="#800000" stroke-width="0.720328" stroke-linecap="round" fill="none" /><path transform="matrix(1 0 0 -1 0 595)" d="M357.0237 446.8115L357.0237 436.7397" stroke="#800000" stroke-width="0.720328" stroke-linecap="round" fill="none" /><path transform="matrix(1 0 0 -1 0 595)" d="M354.8627 444.6533L354.8627 438.8979" stroke="#800000" stroke-width="0.720328" stroke-linecap="round" fill="none" /><path transform="matrix(1 0 0 -1 0 595)" d="M352.7018 442.4946L352.7018 441.0562" stroke="#800000" stroke-width="0.720328" stroke-linecap="round" fill="none" /><path transform="matrix(1 0 0 -1 0 595)" d="M366.3877 441.7759L359.1846 441.7759" stroke="#800000" stroke-width="0.720328" stroke-linecap="round" fill="none" /><path transform="matrix(1 0 0 -1 0 595)" d="M341.1768 492.1353L348.38 492.1353" stroke="#800000" stroke-width="0.720328" stroke-linecap="round" fill="none" /><path transform="matrix(1 0 0 -1 0 595)" d="M344.7784 484.9409L344.7784 492.1353" stroke="#800000" stroke-width="0.720328" stroke-linecap="round" fill="none" /><path transform="matrix(1 0 0 -1 0 595)" d="M607.6914 492.1353L614.8945 492.1353" stroke="#800000" stroke-width="0.720328" stroke-linecap="round" fill="none" /><path transform="matrix(1 0 0 -1 0 595)" d="M611.293 484.9409L611.293 492.1353" stroke="#800000" stroke-width="0.720328" stroke-linecap="round" fill="none" /><path transform="matrix(1 0 0 -1 0 595)" d="M560.8713 434.5811L575.2775 434.5811" stroke="#800000" stroke-width="0.720328" stroke-linecap="round" fill="none" /><path transform="matrix(1 0 0 -1 0 595)" d="M563.0323 432.4229L573.1166 432.4229" stroke="#800000" stroke-width="0.720328" stroke-linecap="round" fill="none" /><path transform="matrix(1 0 0 -1 0 595)" d="M565.1932 430.2646L570.9556 430.2646" stroke="#800000" stroke-width="0.720328" stroke-linecap="round" fill="none" /><path transform="matrix(1 0 0 -1 0 595)" d="M567.3541 428.1064L568.7947 428.1064" stroke="#800000" stroke-width="0.720328" stroke-linecap="round" fill="none" /><path transform="matrix(1 0 0 -1 0 595)" d="M568.0744 441.7759L568.0744 434.5811" stroke="#800000" stroke-width="0.720328" stroke-linecap="round" fill="none" /><path transform="matrix(1 0 0 -1 0 595)" d="M611.293 466.9556L611.293 477.7471" stroke="#000000" stroke-width="0.720328" stroke-linecap="round" fill="none" /><path transform="matrix(1 0 0 -1 0 595)" d="M612.4455 477.8906C 612.4455 477.1753 611.8489 476.5957 611.1129 476.5957C 610.377 476.5957 609.7803 477.1753 609.7803 477.8906C 609.7803 478.606 610.377 479.1855 611.1129 479.1855C 611.8489 479.1855 612.4455 478.606 612.4455 477.8906" stroke="#000080" stroke-width="0.07201438" fill="#000080" fill-rule="winding" /><path transform="matrix(1 0 0 -1 0 595)" d="M611.293 460.4805L611.293 448.9697" stroke="#000000" stroke-width="0.720328" stroke-linecap="round" fill="none" /><path transform="matrix(1 0 0 -1 0 595)" d="M611.293 461.2002L605.5305 466.9556L605.5305 466.9556L617.0555 466.9556z" stroke="none" fill="#0000FF" fill-rule="evenodd" /><path transform="matrix(1 0 0 -1 0 595)" d="M605.5305 466.9556L617.0555 466.9556L617.0555 466.9556L611.293 461.2002z" stroke="#0000FF" stroke-width="0.720328" stroke-linecap="round" fill="none" /><path transform="matrix(1 0 0 -1 0 595)" d="M617.0555 460.4805L605.5305 460.4805L605.5305 460.4805L605.5305 461.2002L605.5305 461.2002L617.0555 461.2002z" stroke="none" fill="#0000FF" fill-rule="evenodd" /><path transform="matrix(1 0 0 -1 0 595)" d="M617.0555 461.2002L617.0555 460.4805L617.0555 460.4805L605.5305 460.4805L605.5305 460.4805L605.5305 461.2002z" stroke="#0000FF" stroke-width="0.720328" stroke-linecap="round" fill="none" /><path transform="matrix(1 0 0 -1 0 595)" d="M612.4455 477.8906C 612.4455 477.1753 611.8489 476.5957 611.1129 476.5957C 610.377 476.5957 609.7803 477.1753 609.7803 477.8906C 609.7803 478.606 610.377 479.1855 611.1129 479.1855C 611.8489 479.1855 612.4455 478.606 612.4455 477.8906" stroke="#000080" stroke-width="0.07201438" fill="#000080" fill-rule="winding" /><path transform="matrix(1 0 0 -1 0 595)" d="M589.6837 448.9697L582.4806 448.9697" stroke="#000000" stroke-width="0.720328" stroke-linecap="round" fill="none" /><path transform="matrix(1 0 0 -1 0 595)" d="M604.0899 448.9697L611.293 448.9697" stroke="#000000" stroke-width="0.720328" stroke-linecap="round" fill="none" /><path transform="matrix(1 0 0 -1 0 595)" d="M589.6837 451.8477L589.6837 446.0923L589.6837 446.0923L604.0899 446.0923L604.0899 446.0923L604.0899 451.8477L604.0899 451.8477L589.6837 451.8477" stroke="#0000FF" stroke-width="0.720328" stroke-linecap="round" fill="none" /><path transform="matrix(1 0 0 -1 0 595)" d="M330.3722 348.25L330.3722 355.4448" stroke="#000000" stroke-width="0.720328" stroke-linecap="round" fill="none" /><path transform="matrix(1 0 0 -1 0 595)" d="M330.3722 333.8618L330.3722 326.6675" stroke="#000000" stroke-width="0.720328" stroke-linecap="round" fill="none" /><path transform="matrix(1 0 0 -1 0 595)" d="M333.2534 348.25L327.491 348.25L327.491 348.25L327.491 333.8618L327.491 333.8618L333.2534 333.8618L333.2534 333.8618L333.2534 348.25" stroke="#0000FF" stroke-width="0.720328" stroke-linecap="round" fill="none" /><path transform="matrix(1 0 0 -1 0 595)" d="M351.9815 348.25L351.9815 355.4448" stroke="#000000" stroke-width="0.720328" stroke-linecap="round" fill="none" /><path transform="matrix(1 0 0 -1 0 595)" d="M351.9815 333.8618L351.9815 326.6675" stroke="#000000" stroke-width="0.720328" stroke-linecap="round" fill="none" /><path transform="matrix(1 0 0 -1 0 595)" d="M354.8627 348.25L349.1003 348.25L349.1003 348.25L349.1003 333.8618L349.1003 333.8618L354.8627 333.8618L354.8627 333.8618L354.8627 348.25" stroke="#0000FF" stroke-width="0.720328" stroke-linecap="round" fill="none" /><path transform="matrix(1 0 0 -1 0 595)" d="M157.4979 211.5596L150.2948 211.5596" stroke="#000000" stroke-width="0.720328" stroke-linecap="round" fill="none" /><path transform="matrix(1 0 0 -1 0 595)" d="M164.701 211.5596L171.9041 211.5596" stroke="#000000" stroke-width="0.720328" stroke-linecap="round" fill="none" /><path transform="matrix(1 0 0 -1 0 595)" d="M158.2903 211.7036C 158.2903 211.187 157.871 210.7681 157.3538 210.7681C 156.8367 210.7681 156.4174 211.187 156.4174 211.7036C 156.4174 212.2197 156.8367 212.6387 157.3538 212.6387C 157.871 212.6387 158.2903 212.2197 158.2903 211.7036" stroke="#0000FF" stroke-width="0.720328" fill="#FFFFFF" fill-rule="winding" /><path transform="matrix(1 0 0 -1 0 595)" d="M165.4934 211.7036C 165.4934 211.187 165.058 210.7681 164.5209 210.7681C 163.9839 210.7681 163.5485 211.187 163.5485 211.7036C 163.5485 212.2197 163.9839 212.6387 164.5209 212.6387C 165.058 212.6387 165.4934 212.2197 165.4934 211.7036" stroke="#0000FF" stroke-width="0.720328" fill="#FFFFFF" fill-rule="winding" /><path transform="matrix(1 0 0 -1 0 595)" d="M155.337 214.4375L166.5738 214.4375L166.5738 214.4375L166.5738 214.0059L166.5738 214.0059L155.337 214.0059z" stroke="#000080" stroke-width="0.07201438" fill="#000080" fill-rule="winding" /><path transform="matrix(1 0 0 -1 0 595)" d="M158.9385 215.876L162.9722 215.876L162.9722 215.876L162.9722 214.7251L162.9722 214.7251L158.9385 214.7251z" stroke="#000080" stroke-width="0.07201438" fill="#000080" fill-rule="winding" /><path transform="matrix(1 0 0 -1 0 595)" d="M128.6856 211.5596L121.4825 211.5596" stroke="#000000" stroke-width="0.720328" stroke-linecap="round" fill="none" /><path transform="matrix(1 0 0 -1 0 595)" d="M143.0918 211.5596L150.2948 211.5596" stroke="#000000" stroke-width="0.720328" stroke-linecap="round" fill="none" /><path transform="matrix(1 0 0 -1 0 595)" d="M128.6856 214.4375L128.6856 208.6821L128.6856 208.6821L143.0918 208.6821L143.0918 208.6821L143.0918 214.4375L143.0918 214.4375L128.6856 214.4375" stroke="#0000FF" stroke-width="0.720328" stroke-linecap="round" fill="none" /><path transform="matrix(1 0 0 -1 0 595)" d="M179.1072 218.7539L179.1072 204.3652" stroke="#800000" stroke-width="0.720328" stroke-linecap="round" fill="none" /><path transform="matrix(1 0 0 -1 0 595)" d="M181.2681 216.5957L181.2681 206.5239" stroke="#800000" stroke-width="0.720328" stroke-linecap="round" fill="none" /><path transform="matrix(1 0 0 -1 0 595)" d="M183.4291 214.4375L183.4291 208.6821" stroke="#800000" stroke-width="0.720328" stroke-linecap="round" fill="none" /><path transform="matrix(1 0 0 -1 0 595)" d="M185.59 212.2793L185.59 210.8403" stroke="#800000" stroke-width="0.720328" stroke-linecap="round" fill="none" /><path transform="matrix(1 0 0 -1 0 595)" d="M171.9041 211.5596L179.1072 211.5596" stroke="#800000" stroke-width="0.720328" stroke-linecap="round" fill="none" /><path transform="matrix(1 0 0 -1 0 595)" d="M157.4979 118.0347L150.2948 118.0347" stroke="#000000" stroke-width="0.720328" stroke-linecap="round" fill="none" /><path transform="matrix(1 0 0 -1 0 595)" d="M164.701 118.0347L171.9041 118.0347" stroke="#000000" stroke-width="0.720328" stroke-linecap="round" fill="none" /><path transform="matrix(1 0 0 -1 0 595)" d="M158.2903 118.1782C 158.2903 117.6621 157.871 117.2432 157.3538 117.2432C 156.8367 117.2432 156.4174 117.6621 156.4174 118.1782C 156.4174 118.6948 156.8367 119.1138 157.3538 119.1138C 157.871 119.1138 158.2903 118.6948 158.2903 118.1782" stroke="#0000FF" stroke-width="0.720328" fill="#FFFFFF" fill-rule="winding" /><path transform="matrix(1 0 0 -1 0 595)" d="M165.4934 118.1782C 165.4934 117.6621 165.058 117.2432 164.5209 117.2432C 163.9839 117.2432 163.5485 117.6621 163.5485 118.1782C 163.5485 118.6948 163.9839 119.1138 164.5209 119.1138C 165.058 119.1138 165.4934 118.6948 165.4934 118.1782" stroke="#0000FF" stroke-width="0.720328" fill="#FFFFFF" fill-rule="winding" /><path transform="matrix(1 0 0 -1 0 595)" d="M155.337 120.9121L166.5738 120.9121L166.5738 120.9121L166.5738 120.48L166.5738 120.48L155.337 120.48z" stroke="#000080" stroke-width="0.07201438" fill="#000080" fill-rule="winding" /><path transform="matrix(1 0 0 -1 0 595)" d="M158.9385 122.3511L162.9722 122.3511L162.9722 122.3511L162.9722 121.2002L162.9722 121.2002L158.9385 121.2002z" stroke="#000080" stroke-width="0.07201438" fill="#000080" fill-rule="winding" /><path transform="matrix(1 0 0 -1 0 595)" d="M128.6856 118.0347L121.4825 118.0347" stroke="#000000" stroke-width="0.720328" stroke-linecap="round" fill="none" /><path transform="matrix(1 0 0 -1 0 595)" d="M143.0918 118.0347L150.2948 118.0347" stroke="#000000" stroke-width="0.720328" stroke-linecap="round" fill="none" /><path transform="matrix(1 0 0 -1 0 595)" d="M128.6856 120.9121L128.6856 115.1567L128.6856 115.1567L143.0918 115.1567L143.0918 115.1567L143.0918 120.9121L143.0918 120.9121L128.6856 120.9121" stroke="#0000FF" stroke-width="0.720328" stroke-linecap="round" fill="none" /><path transform="matrix(1 0 0 -1 0 595)" d="M179.1072 125.2285L179.1072 110.8398" stroke="#800000" stroke-width="0.720328" stroke-linecap="round" fill="none" /><path transform="matrix(1 0 0 -1 0 595)" d="M181.2681 123.0703L181.2681 112.998" stroke="#800000" stroke-width="0.720328" stroke-linecap="round" fill="none" /><path transform="matrix(1 0 0 -1 0 595)" d="M183.4291 120.9121L183.4291 115.1567" stroke="#800000" stroke-width="0.720328" stroke-linecap="round" fill="none" /><path transform="matrix(1 0 0 -1 0 595)" d="M185.59 118.7534L185.59 117.3149" stroke="#800000" stroke-width="0.720328" stroke-linecap="round" fill="none" /><path transform="matrix(1 0 0 -1 0 595)" d="M171.9041 118.0347L179.1072 118.0347" stroke="#800000" stroke-width="0.720328" stroke-linecap="round" fill="none" /><path transform="matrix(1 0 0 -1 0 595)" d="M463.6295 146.811L477.7476 146.811L477.7476 146.811L477.7476 111.1279L477.7476 111.1279L463.6295 111.1279z" stroke="#800000" stroke-width="0.07201438" fill="#FFFFB0" fill-rule="winding" /><path transform="matrix(1 0 0 -1 0 595)" d="M463.6295 139.6172L452.8249 139.6172" stroke="#000000" stroke-width="0.720328" stroke-linecap="round" fill="none" /><path transform="matrix(1 0 0 -1 0 595)" d="M463.6295 132.4229L452.8249 132.4229" stroke="#000000" stroke-width="0.720328" stroke-linecap="round" fill="none" /><path transform="matrix(1 0 0 -1 0 595)" d="M463.6295 125.2285L452.8249 125.2285" stroke="#000000" stroke-width="0.720328" stroke-linecap="round" fill="none" /><path transform="matrix(1 0 0 -1 0 595)" d="M463.6295 118.0347L452.8249 118.0347" stroke="#000000" stroke-width="0.720328" stroke-linecap="round" fill="none" /><path transform="matrix(1 0 0 -1 0 595)" d="M229.4569 341.0562L243.6469 341.0562L243.6469 341.0562L243.6469 312.5669L243.6469 312.5669L229.4569 312.5669z" stroke="#800000" stroke-width="0.07201438" fill="#FFFFB0" fill-rule="winding" /><path transform="matrix(1 0 0 -1 0 595)" d="M243.9351 319.4736L265.5443 319.4736" stroke="#000000" stroke-width="0.720328" stroke-linecap="round" fill="none" /><path transform="matrix(1 0 0 -1 0 595)" d="M243.9351 326.6675L265.5443 326.6675" stroke="#000000" stroke-width="0.720328" stroke-linecap="round" fill="none" /><path transform="matrix(1 0 0 -1 0 595)" d="M243.9351 333.8618L265.5443 333.8618" stroke="#000000" stroke-width="0.720328" stroke-linecap="round" fill="none" /><path transform="matrix(1 0 0 -1 0 595)" d="M575.2775 237.4585L575.2775 242.4951L575.2775 242.4951L589.6837 242.4951L589.6837 242.4951L589.6837 237.4585L589.6837 237.4585L575.2775 237.4585" stroke="#0000FF" stroke-width="0.720328" stroke-linecap="round" fill="none" /><path transform="matrix(1 0 0 -1 0 595)" d="M575.2775 240.3364L568.0744 240.3364" stroke="#000000" stroke-width="0.720328" stroke-linecap="round" fill="none" /><path transform="matrix(1 0 0 -1 0 595)" d="M569.2269 240.4448C 569.2269 239.7095 568.6465 239.1138 567.9304 239.1138C 567.2142 239.1138 566.6338 239.7095 566.6338 240.4448C 566.6338 241.1797 567.2142 241.7754 567.9304 241.7754C 568.6465 241.7754 569.2269 241.1797 569.2269 240.4448" stroke="#000080" stroke-width="0.07201438" fill="#000080" fill-rule="winding" /><path transform="matrix(1 0 0 -1 0 595)" d="M589.6837 240.3364L596.8867 240.3364" stroke="#000000" stroke-width="0.720328" stroke-linecap="round" fill="none" /><path transform="matrix(1 0 0 -1 0 595)" d="M569.2269 240.4448C 569.2269 239.7095 568.6465 239.1138 567.9304 239.1138C 567.2142 239.1138 566.6338 239.7095 566.6338 240.4448C 566.6338 241.1797 567.2142 241.7754 567.9304 241.7754C 568.6465 241.7754 569.2269 241.1797 569.2269 240.4448" stroke="#000080" stroke-width="0.07201438" fill="#000080" fill-rule="winding" /><path transform="matrix(1 0 0 -1 0 595)" d="M546.4651 237.4585L546.4651 242.4951L546.4651 242.4951L560.8713 242.4951L560.8713 242.4951L560.8713 237.4585L560.8713 237.4585L546.4651 237.4585" stroke="#0000FF" stroke-width="0.720328" stroke-linecap="round" fill="none" /><path transform="matrix(1 0 0 -1 0 595)" d="M546.4651 240.3364L539.262 240.3364" stroke="#000000" stroke-width="0.720328" stroke-linecap="round" fill="none" /><path transform="matrix(1 0 0 -1 0 595)" d="M560.8713 240.3364L568.0744 240.3364" stroke="#000000" stroke-width="0.720328" stroke-linecap="round" fill="none" /><path transform="matrix(1 0 0 -1 0 595)" d="M569.2269 240.4448C 569.2269 239.7095 568.6465 239.1138 567.9304 239.1138C 567.2142 239.1138 566.6338 239.7095 566.6338 240.4448C 566.6338 241.1797 567.2142 241.7754 567.9304 241.7754C 568.6465 241.7754 569.2269 241.1797 569.2269 240.4448" stroke="#000080" stroke-width="0.07201438" fill="#000080" fill-rule="winding" /><path transform="matrix(1 0 0 -1 0 595)" d="M569.2269 240.4448C 569.2269 239.7095 568.6465 239.1138 567.9304 239.1138C 567.2142 239.1138 566.6338 239.7095 566.6338 240.4448C 566.6338 241.1797 567.2142 241.7754 567.9304 241.7754C 568.6465 241.7754 569.2269 241.1797 569.2269 240.4448" stroke="#000080" stroke-width="0.07201438" fill="#000080" fill-rule="winding" /><path transform="matrix(1 0 0 -1 0 595)" d="M524.8558 233.1426L539.262 233.1426" stroke="#800000" stroke-width="0.720328" stroke-linecap="round" fill="none" /><path transform="matrix(1 0 0 -1 0 595)" d="M527.0168 230.9839L537.1011 230.9839" stroke="#800000" stroke-width="0.720328" stroke-linecap="round" fill="none" /><path transform="matrix(1 0 0 -1 0 595)" d="M529.1777 228.8262L534.9401 228.8262" stroke="#800000" stroke-width="0.720328" stroke-linecap="round" fill="none" /><path transform="matrix(1 0 0 -1 0 595)" d="M531.3386 226.6675L532.7792 226.6675" stroke="#800000" stroke-width="0.720328" stroke-linecap="round" fill="none" /><path transform="matrix(1 0 0 -1 0 595)" d="M532.0589 240.3364L532.0589 233.1426" stroke="#800000" stroke-width="0.720328" stroke-linecap="round" fill="none" /><path transform="matrix(1 0 0 -1 0 595)" d="M312.3645 154.0059L326.4825 154.0059L326.4825 154.0059L326.4825 111.1279L326.4825 111.1279L312.3645 111.1279z" stroke="#800000" stroke-width="0.07201438" fill="#FFFFB0" fill-rule="winding" /><path transform="matrix(1 0 0 -1 0 595)" d="M312.3645 146.811L301.5598 146.811" stroke="#000000" stroke-width="0.720328" stroke-linecap="round" fill="none" /><path transform="matrix(1 0 0 -1 0 595)" d="M312.3645 139.6172L301.5598 139.6172" stroke="#000000" stroke-width="0.720328" stroke-linecap="round" fill="none" /><path transform="matrix(1 0 0 -1 0 595)" d="M312.3645 132.4229L301.5598 132.4229" stroke="#000000" stroke-width="0.720328" stroke-linecap="round" fill="none" /><path transform="matrix(1 0 0 -1 0 595)" d="M312.3645 125.2285L301.5598 125.2285" stroke="#000000" stroke-width="0.720328" stroke-linecap="round" fill="none" /><path transform="matrix(1 0 0 -1 0 595)" d="M312.3645 118.0347L301.5598 118.0347" stroke="#000000" stroke-width="0.720328" stroke-linecap="round" fill="none" /><path transform="matrix(1 0 0 -1 0 595)" d="M251.1382 490.6963L251.1382 499.3296" stroke="#000000" stroke-width="0.720328" stroke-linecap="round" fill="none" /><path transform="matrix(1 0 0 -1 0 595)" d="M251.1382 486.3799L251.1382 477.7471" stroke="#000000" stroke-width="0.720328" stroke-linecap="round" fill="none" /><path transform="matrix(1 0 0 -1 0 595)" d="M247.5366 486.3799L254.7397 486.3799" stroke="#0000FF" stroke-width="0.720328" stroke-linecap="round" fill="none" /><path transform="matrix(1 0 0 -1 0 595)" d="M247.5366 490.6963L254.7397 490.6963" stroke="#0000FF" stroke-width="0.720328" stroke-linecap="round" fill="none" /><path transform="matrix(1 0 0 -1 0 595)" d="M243.9351 463.3584L258.3413 463.3584" stroke="#800000" stroke-width="0.720328" stroke-linecap="round" fill="none" /><path transform="matrix(1 0 0 -1 0 595)" d="M246.096 461.2002L256.1803 461.2002" stroke="#800000" stroke-width="0.720328" stroke-linecap="round" fill="none" /><path transform="matrix(1 0 0 -1 0 595)" d="M248.257 459.0415L254.0194 459.0415" stroke="#800000" stroke-width="0.720328" stroke-linecap="round" fill="none" /><path transform="matrix(1 0 0 -1 0 595)" d="M250.4178 456.8833L251.8585 456.8833" stroke="#800000" stroke-width="0.720328" stroke-linecap="round" fill="none" /><path transform="matrix(1 0 0 -1 0 595)" d="M251.1382 470.5522L251.1382 463.3584" stroke="#800000" stroke-width="0.720328" stroke-linecap="round" fill="none" /><path transform="matrix(1 0 0 -1 0 595)" d="M252.2907 470.6963C 252.2907 469.9814 251.694 469.4014 250.958 469.4014C 250.2222 469.4014 249.6255 469.9814 249.6255 470.6963C 249.6255 471.4121 250.2222 471.9917 250.958 471.9917C 251.694 471.9917 252.2907 471.4121 252.2907 470.6963" stroke="#000080" stroke-width="0.07201438" fill="#000080" fill-rule="winding" /><path transform="matrix(1 0 0 -1 0 595)" d="M272.7475 490.6963L272.7475 499.3296" stroke="#000000" stroke-width="0.720328" stroke-linecap="round" fill="none" /><path transform="matrix(1 0 0 -1 0 595)" d="M272.7475 486.3799L272.7475 477.7471" stroke="#000000" stroke-width="0.720328" stroke-linecap="round" fill="none" /><path transform="matrix(1 0 0 -1 0 595)" d="M269.1459 486.3799L276.349 486.3799" stroke="#0000FF" stroke-width="0.720328" stroke-linecap="round" fill="none" /><path transform="matrix(1 0 0 -1 0 595)" d="M269.1459 490.6963L276.349 490.6963" stroke="#0000FF" stroke-width="0.720328" stroke-linecap="round" fill="none" /><path transform="matrix(1 0 0 -1 0 595)" d="M114.2794 454.7251L114.2794 463.3584" stroke="#000000" stroke-width="0.720328" stroke-linecap="round" fill="none" /><path transform="matrix(1 0 0 -1 0 595)" d="M114.2794 450.4087L114.2794 441.7759" stroke="#000000" stroke-width="0.720328" stroke-linecap="round" fill="none" /><path transform="matrix(1 0 0 -1 0 595)" d="M110.6778 450.4087L117.8809 450.4087" stroke="#0000FF" stroke-width="0.720328" stroke-linecap="round" fill="none" /><path transform="matrix(1 0 0 -1 0 595)" d="M110.6778 454.7251L117.8809 454.7251" stroke="#0000FF" stroke-width="0.720328" stroke-linecap="round" fill="none" /><path transform="matrix(1 0 0 -1 0 595)" d="M107.0763 434.5811L121.4825 434.5811" stroke="#800000" stroke-width="0.720328" stroke-linecap="round" fill="none" /><path transform="matrix(1 0 0 -1 0 595)" d="M109.2372 432.4229L119.3215 432.4229" stroke="#800000" stroke-width="0.720328" stroke-linecap="round" fill="none" /><path transform="matrix(1 0 0 -1 0 595)" d="M111.3981 430.2646L117.1606 430.2646" stroke="#800000" stroke-width="0.720328" stroke-linecap="round" fill="none" /><path transform="matrix(1 0 0 -1 0 595)" d="M113.559 428.1064L114.9997 428.1064" stroke="#800000" stroke-width="0.720328" stroke-linecap="round" fill="none" /><path transform="matrix(1 0 0 -1 0 595)" d="M114.2794 441.7759L114.2794 434.5811" stroke="#800000" stroke-width="0.720328" stroke-linecap="round" fill="none" /><path transform="matrix(1 0 0 -1 0 595)" d="M676.1208 506.5234L668.9177 506.5234" stroke="#000080" stroke-width="0.720328" stroke-linecap="round" fill="none" /><path transform="matrix(1 0 0 -1 0 595)" d="M676.1208 499.3296L668.9177 499.3296" stroke="#000080" stroke-width="0.720328" stroke-linecap="round" fill="none" /><path transform="matrix(1 0 0 -1 0 595)" d="M676.1208 492.1353L668.9177 492.1353" stroke="#000080" stroke-width="0.720328" stroke-linecap="round" fill="none" /><path transform="matrix(1 0 0 -1 0 595)" d="M676.1208 484.9409L668.9177 484.9409" stroke="#000080" stroke-width="0.720328" stroke-linecap="round" fill="none" /><path transform="matrix(1 0 0 -1 0 595)" d="M676.1208 477.7471L668.9177 477.7471" stroke="#000080" stroke-width="0.720328" stroke-linecap="round" fill="none" /><path transform="matrix(1 0 0 -1 0 595)" d="M676.1208 470.5522L668.9177 470.5522" stroke="#000080" stroke-width="0.720328" stroke-linecap="round" fill="none" /><path transform="matrix(1 0 0 -1 0 595)" d="M676.1208 463.3584L668.9177 463.3584" stroke="#000080" stroke-width="0.720328" stroke-linecap="round" fill="none" /><path transform="matrix(1 0 0 -1 0 595)" d="M676.1208 456.1641L668.9177 456.1641" stroke="#000080" stroke-width="0.720328" stroke-linecap="round" fill="none" /><path transform="matrix(1 0 0 -1 0 595)" d="M676.1208 412.9985L668.9177 412.9985" stroke="#000080" stroke-width="0.720328" stroke-linecap="round" fill="none" /><path transform="matrix(1 0 0 -1 0 595)" d="M676.1208 405.8047L668.9177 405.8047" stroke="#000080" stroke-width="0.720328" stroke-linecap="round" fill="none" /><path transform="matrix(1 0 0 -1 0 595)" d="M676.1208 398.6099L668.9177 398.6099" stroke="#000080" stroke-width="0.720328" stroke-linecap="round" fill="none" /><path transform="matrix(1 0 0 -1 0 595)" d="M676.1208 391.416L668.9177 391.416" stroke="#000080" stroke-width="0.720328" stroke-linecap="round" fill="none" /><path transform="matrix(1 0 0 -1 0 595)" d="M676.1208 384.2212L668.9177 384.2212" stroke="#000080" stroke-width="0.720328" stroke-linecap="round" fill="none" /><path transform="matrix(1 0 0 -1 0 595)" d="M676.1208 377.0273L668.9177 377.0273" stroke="#000080" stroke-width="0.720328" stroke-linecap="round" fill="none" /><path transform="matrix(1 0 0 -1 0 595)" d="M676.1208 369.833L668.9177 369.833" stroke="#000080" stroke-width="0.720328" stroke-linecap="round" fill="none" /><path transform="matrix(1 0 0 -1 0 595)" d="M676.1208 362.6387L668.9177 362.6387" stroke="#000080" stroke-width="0.720328" stroke-linecap="round" fill="none" /><path transform="matrix(1 0 0 -1 0 595)" d="M740.9487 506.5234L733.7455 506.5234" stroke="#000080" stroke-width="0.720328" stroke-linecap="round" fill="none" /><path transform="matrix(1 0 0 -1 0 595)" d="M740.9487 499.3296L733.7455 499.3296" stroke="#000080" stroke-width="0.720328" stroke-linecap="round" fill="none" /><path transform="matrix(1 0 0 -1 0 595)" d="M740.9487 492.1353L733.7455 492.1353" stroke="#000080" stroke-width="0.720328" stroke-linecap="round" fill="none" /><path transform="matrix(1 0 0 -1 0 595)" d="M740.9487 484.9409L733.7455 484.9409" stroke="#000080" stroke-width="0.720328" stroke-linecap="round" fill="none" /><path transform="matrix(1 0 0 -1 0 595)" d="M740.9487 477.7471L733.7455 477.7471" stroke="#000080" stroke-width="0.720328" stroke-linecap="round" fill="none" /><path transform="matrix(1 0 0 -1 0 595)" d="M740.9487 470.5522L733.7455 470.5522" stroke="#000080" stroke-width="0.720328" stroke-linecap="round" fill="none" /><path transform="matrix(1 0 0 -1 0 595)" d="M740.9487 463.3584L733.7455 463.3584" stroke="#000080" stroke-width="0.720328" stroke-linecap="round" fill="none" /><path transform="matrix(1 0 0 -1 0 595)" d="M740.9487 456.1641L733.7455 456.1641" stroke="#000080" stroke-width="0.720328" stroke-linecap="round" fill="none" /><path transform="matrix(1 0 0 -1 0 595)" d="M740.9487 412.9985L733.7455 412.9985" stroke="#000080" stroke-width="0.720328" stroke-linecap="round" fill="none" /><path transform="matrix(1 0 0 -1 0 595)" d="M740.9487 405.8047L733.7455 405.8047" stroke="#000080" stroke-width="0.720328" stroke-linecap="round" fill="none" /><path transform="matrix(1 0 0 -1 0 595)" d="M740.9487 398.6099L733.7455 398.6099" stroke="#000080" stroke-width="0.720328" stroke-linecap="round" fill="none" /><path transform="matrix(1 0 0 -1 0 595)" d="M740.9487 391.416L733.7455 391.416" stroke="#000080" stroke-width="0.720328" stroke-linecap="round" fill="none" /><path transform="matrix(1 0 0 -1 0 595)" d="M740.9487 384.2212L733.7455 384.2212" stroke="#000080" stroke-width="0.720328" stroke-linecap="round" fill="none" /><path transform="matrix(1 0 0 -1 0 595)" d="M740.9487 377.0273L733.7455 377.0273" stroke="#000080" stroke-width="0.720328" stroke-linecap="round" fill="none" /><path transform="matrix(1 0 0 -1 0 595)" d="M740.9487 369.833L733.7455 369.833" stroke="#000080" stroke-width="0.720328" stroke-linecap="round" fill="none" /><path transform="matrix(1 0 0 -1 0 595)" d="M740.9487 362.6387L733.7455 362.6387" stroke="#000080" stroke-width="0.720328" stroke-linecap="round" fill="none" /><path transform="matrix(1 0 0 -1 0 595)" d="M107.0763 326.6675L85.46697 326.6675" stroke="#000080" stroke-width="0.720328" stroke-linecap="round" fill="none" /><path transform="matrix(1 0 0 -1 0 595)" d="M171.9041 348.25L186.3103 348.25L186.3103 348.25L186.3103 333.8618" stroke="#000080" stroke-width="0.720328" stroke-linecap="round" fill="none" /><path transform="matrix(1 0 0 -1 0 595)" d="M171.9041 326.6675L186.3103 326.6675" stroke="#000080" stroke-width="0.720328" stroke-linecap="round" fill="none" /><path transform="matrix(1 0 0 -1 0 595)" d="M171.9041 305.085L186.3103 305.085L186.3103 305.085L186.3103 319.4736" stroke="#000080" stroke-width="0.720328" stroke-linecap="round" fill="none" /><path transform="matrix(1 0 0 -1 0 595)" d="M128.6856 499.3296L121.4825 499.3296" stroke="#000080" stroke-width="0.720328" stroke-linecap="round" fill="none" /><path transform="matrix(1 0 0 -1 0 595)" d="M128.6856 492.1353L121.4825 492.1353" stroke="#000080" stroke-width="0.720328" stroke-linecap="round" fill="none" /><path transform="matrix(1 0 0 -1 0 595)" d="M78.26388 506.5234L107.0763 506.5234L107.0763 506.5234L128.6856 506.5234" stroke="#000080" stroke-width="0.720328" stroke-linecap="round" fill="none" /><path transform="matrix(1 0 0 -1 0 595)" d="M108.2288 506.6318C 108.2288 505.897 107.6321 505.3008 106.8961 505.3008C 106.1602 505.3008 105.5636 505.897 105.5636 506.6318C 105.5636 507.3667 106.1602 507.9629 106.8961 507.9629C 107.6321 507.9629 108.2288 507.3667 108.2288 506.6318" stroke="#000080" stroke-width="0.07201438" fill="#000080" fill-rule="winding" /><path transform="matrix(1 0 0 -1 0 595)" d="M78.26388 492.1353L92.67007 492.1353L92.67007 492.1353L92.67007 477.7471L92.67007 477.7471L128.6856 477.7471" stroke="#000080" stroke-width="0.720328" stroke-linecap="round" fill="none" /><path transform="matrix(1 0 0 -1 0 595)" d="M78.26388 484.9409L85.46697 484.9409L85.46697 484.9409L85.46697 470.5522L85.46697 470.5522L128.6856 470.5522" stroke="#000080" stroke-width="0.720328" stroke-linecap="round" fill="none" /><path transform="matrix(1 0 0 -1 0 595)" d="M78.26388 477.7471L78.26388 456.1641" stroke="#000080" stroke-width="0.720328" stroke-linecap="round" fill="none" /><path transform="matrix(1 0 0 -1 0 595)" d="M222.3258 492.1353L236.732 492.1353" stroke="#000080" stroke-width="0.720328" stroke-linecap="round" fill="none" /><path transform="matrix(1 0 0 -1 0 595)" d="M222.3258 484.9409L236.732 484.9409" stroke="#000080" stroke-width="0.720328" stroke-linecap="round" fill="none" /><path transform="matrix(1 0 0 -1 0 595)" d="M359.1846 269.1138L337.5753 269.1138" stroke="#000080" stroke-width="0.720328" stroke-linecap="round" fill="none" /><path transform="matrix(1 0 0 -1 0 595)" d="M359.1846 276.3076L337.5753 276.3076" stroke="#000080" stroke-width="0.720328" stroke-linecap="round" fill="none" /><path transform="matrix(1 0 0 -1 0 595)" d="M359.1846 283.5024L337.5753 283.5024" stroke="#000080" stroke-width="0.720328" stroke-linecap="round" fill="none" /><path transform="matrix(1 0 0 -1 0 595)" d="M359.1846 290.6963L337.5753 290.6963" stroke="#000080" stroke-width="0.720328" stroke-linecap="round" fill="none" /><path transform="matrix(1 0 0 -1 0 595)" d="M359.1846 297.8906L337.5753 297.8906" stroke="#000080" stroke-width="0.720328" stroke-linecap="round" fill="none" /><path transform="matrix(1 0 0 -1 0 595)" d="M359.1846 305.085L337.5753 305.085" stroke="#000080" stroke-width="0.720328" stroke-linecap="round" fill="none" /><path transform="matrix(1 0 0 -1 0 595)" d="M474.4341 269.1138L452.8249 269.1138" stroke="#000080" stroke-width="0.720328" stroke-linecap="round" fill="none" /><path transform="matrix(1 0 0 -1 0 595)" d="M474.4341 276.3076L452.8249 276.3076" stroke="#000080" stroke-width="0.720328" stroke-linecap="round" fill="none" /><path transform="matrix(1 0 0 -1 0 595)" d="M474.4341 283.5024L452.8249 283.5024" stroke="#000080" stroke-width="0.720328" stroke-linecap="round" fill="none" /><path transform="matrix(1 0 0 -1 0 595)" d="M474.4341 290.6963L452.8249 290.6963" stroke="#000080" stroke-width="0.720328" stroke-linecap="round" fill="none" /><path transform="matrix(1 0 0 -1 0 595)" d="M474.4341 297.8906L452.8249 297.8906" stroke="#000080" stroke-width="0.720328" stroke-linecap="round" fill="none" /><path transform="matrix(1 0 0 -1 0 595)" d="M474.4341 305.085L452.8249 305.085" stroke="#000080" stroke-width="0.720328" stroke-linecap="round" fill="none" /><path transform="matrix(1 0 0 -1 0 595)" d="M474.4341 312.2788L452.8249 312.2788" stroke="#000080" stroke-width="0.720328" stroke-linecap="round" fill="none" /><path transform="matrix(1 0 0 -1 0 595)" d="M474.4341 319.4736L452.8249 319.4736" stroke="#000080" stroke-width="0.720328" stroke-linecap="round" fill="none" /><path transform="matrix(1 0 0 -1 0 595)" d="M683.3239 276.3076L661.7147 276.3076" stroke="#000080" stroke-width="0.720328" stroke-linecap="round" fill="none" /><path transform="matrix(1 0 0 -1 0 595)" d="M719.3394 247.5308L712.1363 247.5308" stroke="#000080" stroke-width="0.720328" stroke-linecap="round" fill="none" /><path transform="matrix(1 0 0 -1 0 595)" d="M719.3394 182.7822L712.1363 182.7822" stroke="#000080" stroke-width="0.720328" stroke-linecap="round" fill="none" /><path transform="matrix(1 0 0 -1 0 595)" d="M683.3239 154.0059L661.7147 154.0059" stroke="#000080" stroke-width="0.720328" stroke-linecap="round" fill="none" /><path transform="matrix(1 0 0 -1 0 595)" d="M683.3239 211.5596L748.1517 218.7539L748.1517 218.7539L748.1517 247.5308L748.1517 247.5308L769.761 247.5308" stroke="#000080" stroke-width="0.720328" stroke-linecap="round" fill="none" /><path transform="matrix(1 0 0 -1 0 595)" d="M749.3043 247.6748C 749.3043 246.9595 748.7077 246.3799 747.9717 246.3799C 747.2358 246.3799 746.6392 246.9595 746.6392 247.6748C 746.6392 248.3896 747.2358 248.9697 747.9717 248.9697C 748.7077 248.9697 749.3043 248.3896 749.3043 247.6748" stroke="#000080" stroke-width="0.07201438" fill="#000080" fill-rule="winding" /><path transform="matrix(1 0 0 -1 0 595)" d="M683.3239 218.7539L748.1517 204.3652L748.1517 204.3652L748.1517 182.7822L748.1517 182.7822L769.761 182.7822" stroke="#000080" stroke-width="0.720328" stroke-linecap="round" fill="none" /><path transform="matrix(1 0 0 -1 0 595)" d="M749.3043 182.9263C 749.3043 182.2109 748.7077 181.6313 747.9717 181.6313C 747.2358 181.6313 746.6392 182.2109 746.6392 182.9263C 746.6392 183.6416 747.2358 184.2217 747.9717 184.2217C 748.7077 184.2217 749.3043 183.6416 749.3043 182.9263" stroke="#000080" stroke-width="0.07201438" fill="#000080" fill-rule="winding" /><path transform="matrix(1 0 0 -1 0 595)" d="M445.6218 448.9697L438.4186 448.9697L438.4186 448.9697L438.4186 477.7471" stroke="#000080" stroke-width="0.720328" stroke-linecap="round" fill="none" /><path transform="matrix(1 0 0 -1 0 595)" d="M439.5712 477.8906C 439.5712 477.1753 438.9906 476.5957 438.2746 476.5957C 437.5585 476.5957 436.978 477.1753 436.978 477.8906C 436.978 478.606 437.5585 479.1855 438.2746 479.1855C 438.9906 479.1855 439.5712 478.606 439.5712 477.8906" stroke="#000080" stroke-width="0.07201438" fill="#000080" fill-rule="winding" /><path transform="matrix(1 0 0 -1 0 595)" d="M344.7784 477.7471L344.7784 484.9409" stroke="#000080" stroke-width="0.720328" stroke-linecap="round" fill="none" /><path transform="matrix(1 0 0 -1 0 595)" d="M416.8094 441.7759L416.8094 448.9697" stroke="#000080" stroke-width="0.720328" stroke-linecap="round" fill="none" /><path transform="matrix(1 0 0 -1 0 595)" d="M417.9619 441.8833C 417.9619 441.1484 417.3813 440.5527 416.6653 440.5527C 415.9492 440.5527 415.3687 441.1484 415.3687 441.8833C 415.3687 442.6187 415.9492 443.2144 416.6653 443.2144C 417.3813 443.2144 417.9619 442.6187 417.9619 441.8833" stroke="#000080" stroke-width="0.07201438" fill="#000080" fill-rule="winding" /><path transform="matrix(1 0 0 -1 0 595)" d="M416.8094 470.5522L416.8094 477.7471" stroke="#000080" stroke-width="0.720328" stroke-linecap="round" fill="none" /><path transform="matrix(1 0 0 -1 0 595)" d="M417.9619 477.8906C 417.9619 477.1753 417.3813 476.5957 416.6653 476.5957C 415.9492 476.5957 415.3687 477.1753 415.3687 477.8906C 415.3687 478.606 415.9492 479.1855 416.6653 479.1855C 417.3813 479.1855 417.9619 478.606 417.9619 477.8906" stroke="#000080" stroke-width="0.07201438" fill="#000080" fill-rule="winding" /><path transform="matrix(1 0 0 -1 0 595)" d="M395.2001 448.9697L395.2001 441.7759" stroke="#000080" stroke-width="0.720328" stroke-linecap="round" fill="none" /><path transform="matrix(1 0 0 -1 0 595)" d="M396.3526 441.8833C 396.3526 441.1484 395.7721 440.5527 395.0561 440.5527C 394.34 440.5527 393.7594 441.1484 393.7594 441.8833C 393.7594 442.6187 394.34 443.2144 395.0561 443.2144C 395.7721 443.2144 396.3526 442.6187 396.3526 441.8833" stroke="#000080" stroke-width="0.07201438" fill="#000080" fill-rule="winding" /><path transform="matrix(1 0 0 -1 0 595)" d="M395.2001 470.5522L395.2001 477.7471" stroke="#000080" stroke-width="0.720328" stroke-linecap="round" fill="none" /><path transform="matrix(1 0 0 -1 0 595)" d="M396.3526 477.8906C 396.3526 477.1753 395.7721 476.5957 395.0561 476.5957C 394.34 476.5957 393.7594 477.1753 393.7594 477.8906C 393.7594 478.606 394.34 479.1855 395.0561 479.1855C 395.7721 479.1855 396.3526 478.606 396.3526 477.8906" stroke="#000080" stroke-width="0.07201438" fill="#000080" fill-rule="winding" /><path transform="matrix(1 0 0 -1 0 595)" d="M373.5908 477.7471L380.7939 477.7471L380.7939 477.7471L395.2001 477.7471" stroke="#000080" stroke-width="0.720328" stroke-linecap="round" fill="none" /><path transform="matrix(1 0 0 -1 0 595)" d="M381.9464 477.8906C 381.9464 477.1753 381.3658 476.5957 380.6498 476.5957C 379.9338 476.5957 379.3532 477.1753 379.3532 477.8906C 379.3532 478.606 379.9338 479.1855 380.6498 479.1855C 381.3658 479.1855 381.9464 478.606 381.9464 477.8906" stroke="#000080" stroke-width="0.07201438" fill="#000080" fill-rule="winding" /><path transform="matrix(1 0 0 -1 0 595)" d="M396.3526 477.8906C 396.3526 477.1753 395.7721 476.5957 395.0561 476.5957C 394.34 476.5957 393.7594 477.1753 393.7594 477.8906C 393.7594 478.606 394.34 479.1855 395.0561 479.1855C 395.7721 479.1855 396.3526 478.606 396.3526 477.8906" stroke="#000080" stroke-width="0.07201438" fill="#000080" fill-rule="winding" /><path transform="matrix(1 0 0 -1 0 595)" d="M395.2001 477.7471L416.8094 477.7471" stroke="#000080" stroke-width="0.720328" stroke-linecap="round" fill="none" /><path transform="matrix(1 0 0 -1 0 595)" d="M396.3526 477.8906C 396.3526 477.1753 395.7721 476.5957 395.0561 476.5957C 394.34 476.5957 393.7594 477.1753 393.7594 477.8906C 393.7594 478.606 394.34 479.1855 395.0561 479.1855C 395.7721 479.1855 396.3526 478.606 396.3526 477.8906" stroke="#000080" stroke-width="0.07201438" fill="#000080" fill-rule="winding" /><path transform="matrix(1 0 0 -1 0 595)" d="M417.9619 477.8906C 417.9619 477.1753 417.3813 476.5957 416.6653 476.5957C 415.9492 476.5957 415.3687 477.1753 415.3687 477.8906C 415.3687 478.606 415.9492 479.1855 416.6653 479.1855C 417.3813 479.1855 417.9619 478.606 417.9619 477.8906" stroke="#000080" stroke-width="0.07201438" fill="#000080" fill-rule="winding" /><path transform="matrix(1 0 0 -1 0 595)" d="M539.262 477.7471L546.4651 477.7471L546.4651 477.7471L568.0744 477.7471L568.0744 477.7471L611.293 477.7471L611.293 477.7471L611.293 484.9409" stroke="#000080" stroke-width="0.720328" stroke-linecap="round" fill="none" /><path transform="matrix(1 0 0 -1 0 595)" d="M547.6176 477.8906C 547.6176 477.1753 547.0209 476.5957 546.2851 476.5957C 545.5491 476.5957 544.9524 477.1753 544.9524 477.8906C 544.9524 478.606 545.5491 479.1855 546.2851 479.1855C 547.0209 479.1855 547.6176 478.606 547.6176 477.8906" stroke="#000080" stroke-width="0.07201438" fill="#000080" fill-rule="winding" /><path transform="matrix(1 0 0 -1 0 595)" d="M569.2269 477.8906C 569.2269 477.1753 568.6465 476.5957 567.9304 476.5957C 567.2142 476.5957 566.6338 477.1753 566.6338 477.8906C 566.6338 478.606 567.2142 479.1855 567.9304 479.1855C 568.6465 479.1855 569.2269 478.606 569.2269 477.8906" stroke="#000080" stroke-width="0.07201438" fill="#000080" fill-rule="winding" /><path transform="matrix(1 0 0 -1 0 595)" d="M612.4455 477.8906C 612.4455 477.1753 611.8489 476.5957 611.1129 476.5957C 610.377 476.5957 609.7803 477.1753 609.7803 477.8906C 609.7803 478.606 610.377 479.1855 611.1129 479.1855C 611.8489 479.1855 612.4455 478.606 612.4455 477.8906" stroke="#000080" stroke-width="0.07201438" fill="#000080" fill-rule="winding" /><path transform="matrix(1 0 0 -1 0 595)" d="M568.0744 448.9697L568.0744 441.7759" stroke="#000080" stroke-width="0.720328" stroke-linecap="round" fill="none" /><path transform="matrix(1 0 0 -1 0 595)" d="M569.2269 449.1138C 569.2269 448.3984 568.6465 447.8188 567.9304 447.8188C 567.2142 447.8188 566.6338 448.3984 566.6338 449.1138C 566.6338 449.8286 567.2142 450.4087 567.9304 450.4087C 568.6465 450.4087 569.2269 449.8286 569.2269 449.1138" stroke="#000080" stroke-width="0.07201438" fill="#000080" fill-rule="winding" /><path transform="matrix(1 0 0 -1 0 595)" d="M546.4651 456.1641L546.4651 448.9697L546.4651 448.9697L568.0744 448.9697L568.0744 448.9697L568.0744 456.1641" stroke="#000080" stroke-width="0.720328" stroke-linecap="round" fill="none" /><path transform="matrix(1 0 0 -1 0 595)" d="M569.2269 449.1138C 569.2269 448.3984 568.6465 447.8188 567.9304 447.8188C 567.2142 447.8188 566.6338 448.3984 566.6338 449.1138C 566.6338 449.8286 567.2142 450.4087 567.9304 450.4087C 568.6465 450.4087 569.2269 449.8286 569.2269 449.1138" stroke="#000080" stroke-width="0.07201438" fill="#000080" fill-rule="winding" /><path transform="matrix(1 0 0 -1 0 595)" d="M568.0744 448.9697L582.4806 448.9697" stroke="#000080" stroke-width="0.720328" stroke-linecap="round" fill="none" /><path transform="matrix(1 0 0 -1 0 595)" d="M569.2269 449.1138C 569.2269 448.3984 568.6465 447.8188 567.9304 447.8188C 567.2142 447.8188 566.6338 448.3984 566.6338 449.1138C 566.6338 449.8286 567.2142 450.4087 567.9304 450.4087C 568.6465 450.4087 569.2269 449.8286 569.2269 449.1138" stroke="#000080" stroke-width="0.07201438" fill="#000080" fill-rule="winding" /><path transform="matrix(1 0 0 -1 0 595)" d="M359.1846 312.2788L330.3722 312.2788L330.3722 312.2788L330.3722 326.6675" stroke="#000080" stroke-width="0.720328" stroke-linecap="round" fill="none" /><path transform="matrix(1 0 0 -1 0 595)" d="M359.1846 319.4736L351.9815 319.4736L351.9815 319.4736L351.9815 326.6675" stroke="#000080" stroke-width="0.720328" stroke-linecap="round" fill="none" /><path transform="matrix(1 0 0 -1 0 595)" d="M330.3722 355.4448L330.3722 362.6387L330.3722 362.6387L315.966 362.6387" stroke="#000080" stroke-width="0.720328" stroke-linecap="round" fill="none" /><path transform="matrix(1 0 0 -1 0 595)" d="M351.9815 355.4448L351.9815 362.6387L351.9815 362.6387L337.5753 362.6387" stroke="#000080" stroke-width="0.720328" stroke-linecap="round" fill="none" /><path transform="matrix(1 0 0 -1 0 595)" d="M121.4825 211.5596L107.0763 211.5596" stroke="#000080" stroke-width="0.720328" stroke-linecap="round" fill="none" /><path transform="matrix(1 0 0 -1 0 595)" d="M121.4825 118.0347L107.0763 118.0347" stroke="#000080" stroke-width="0.720328" stroke-linecap="round" fill="none" /><path transform="matrix(1 0 0 -1 0 595)" d="M287.1537 146.811L301.5598 146.811" stroke="#000080" stroke-width="0.720328" stroke-linecap="round" fill="none" /><path transform="matrix(1 0 0 -1 0 595)" d="M287.1537 139.6172L301.5598 139.6172" stroke="#000080" stroke-width="0.720328" stroke-linecap="round" fill="none" /><path transform="matrix(1 0 0 -1 0 595)" d="M287.1537 132.4229L301.5598 132.4229" stroke="#000080" stroke-width="0.720328" stroke-linecap="round" fill="none" /><path transform="matrix(1 0 0 -1 0 595)" d="M301.5598 125.2285L287.1537 125.2285" stroke="#000080" stroke-width="0.720328" stroke-linecap="round" fill="none" /><path transform="matrix(1 0 0 -1 0 595)" d="M438.4186 139.6172L452.8249 139.6172" stroke="#000080" stroke-width="0.720328" stroke-linecap="round" fill="none" /><path transform="matrix(1 0 0 -1 0 595)" d="M438.4186 132.4229L452.8249 132.4229" stroke="#000080" stroke-width="0.720328" stroke-linecap="round" fill="none" /><path transform="matrix(1 0 0 -1 0 595)" d="M438.4186 125.2285L452.8249 125.2285" stroke="#000080" stroke-width="0.720328" stroke-linecap="round" fill="none" /><path transform="matrix(1 0 0 -1 0 595)" d="M452.8249 118.0347L438.4186 118.0347" stroke="#000080" stroke-width="0.720328" stroke-linecap="round" fill="none" /><path transform="matrix(1 0 0 -1 0 595)" d="M265.5443 333.8618L287.1537 333.8618" stroke="#000080" stroke-width="0.720328" stroke-linecap="round" fill="none" /><path transform="matrix(1 0 0 -1 0 595)" d="M265.5443 326.6675L287.1537 326.6675" stroke="#000080" stroke-width="0.720328" stroke-linecap="round" fill="none" /><path transform="matrix(1 0 0 -1 0 595)" d="M265.5443 319.4736L287.1537 319.4736" stroke="#000080" stroke-width="0.720328" stroke-linecap="round" fill="none" /><path transform="matrix(1 0 0 -1 0 595)" d="M568.0744 240.3364L568.0744 254.7251L568.0744 254.7251L539.262 254.7251" stroke="#000080" stroke-width="0.720328" stroke-linecap="round" fill="none" /><path transform="matrix(1 0 0 -1 0 595)" d="M569.2269 240.4448C 569.2269 239.7095 568.6465 239.1138 567.9304 239.1138C 567.2142 239.1138 566.6338 239.7095 566.6338 240.4448C 566.6338 241.1797 567.2142 241.7754 567.9304 241.7754C 568.6465 241.7754 569.2269 241.1797 569.2269 240.4448" stroke="#000080" stroke-width="0.07201438" fill="#000080" fill-rule="winding" /><path transform="matrix(1 0 0 -1 0 595)" d="M596.8867 240.3364L618.496 240.3364" stroke="#000080" stroke-width="0.720328" stroke-linecap="round" fill="none" /><path transform="matrix(1 0 0 -1 0 595)" d="M539.262 240.3364L532.0589 240.3364" stroke="#000080" stroke-width="0.720328" stroke-linecap="round" fill="none" /><path transform="matrix(1 0 0 -1 0 595)" d="M301.5598 118.0347L287.1537 118.0347" stroke="#000080" stroke-width="0.720328" stroke-linecap="round" fill="none" /><path transform="matrix(1 0 0 -1 0 595)" d="M366.3877 441.7759L395.2001 441.7759L395.2001 441.7759L416.8094 441.7759L416.8094 441.7759L431.2155 441.7759L431.2155 441.7759L431.2155 463.3584L431.2155 463.3584L445.6218 463.3584" stroke="#000080" stroke-width="0.720328" stroke-linecap="round" fill="none" /><path transform="matrix(1 0 0 -1 0 595)" d="M396.3526 441.8833C 396.3526 441.1484 395.7721 440.5527 395.0561 440.5527C 394.34 440.5527 393.7594 441.1484 393.7594 441.8833C 393.7594 442.6187 394.34 443.2144 395.0561 443.2144C 395.7721 443.2144 396.3526 442.6187 396.3526 441.8833" stroke="#000080" stroke-width="0.07201438" fill="#000080" fill-rule="winding" /><path transform="matrix(1 0 0 -1 0 595)" d="M417.9619 441.8833C 417.9619 441.1484 417.3813 440.5527 416.6653 440.5527C 415.9492 440.5527 415.3687 441.1484 415.3687 441.8833C 415.3687 442.6187 415.9492 443.2144 416.6653 443.2144C 417.3813 443.2144 417.9619 442.6187 417.9619 441.8833" stroke="#000080" stroke-width="0.07201438" fill="#000080" fill-rule="winding" /><path transform="matrix(1 0 0 -1 0 595)" d="M416.8094 477.7471L438.4186 477.7471L438.4186 477.7471L445.6218 477.7471" stroke="#000080" stroke-width="0.720328" stroke-linecap="round" fill="none" /><path transform="matrix(1 0 0 -1 0 595)" d="M417.9619 477.8906C 417.9619 477.1753 417.3813 476.5957 416.6653 476.5957C 415.9492 476.5957 415.3687 477.1753 415.3687 477.8906C 415.3687 478.606 415.9492 479.1855 416.6653 479.1855C 417.3813 479.1855 417.9619 478.606 417.9619 477.8906" stroke="#000080" stroke-width="0.07201438" fill="#000080" fill-rule="winding" /><path transform="matrix(1 0 0 -1 0 595)" d="M439.5712 477.8906C 439.5712 477.1753 438.9906 476.5957 438.2746 476.5957C 437.5585 476.5957 436.978 477.1753 436.978 477.8906C 436.978 478.606 437.5585 479.1855 438.2746 479.1855C 438.9906 479.1855 439.5712 478.606 439.5712 477.8906" stroke="#000080" stroke-width="0.07201438" fill="#000080" fill-rule="winding" /><path transform="matrix(1 0 0 -1 0 595)" d="M229.5289 520.9121L229.5289 506.5234" stroke="#000080" stroke-width="0.720328" stroke-linecap="round" fill="none" /><path transform="matrix(1 0 0 -1 0 595)" d="M230.6814 506.6318C 230.6814 505.897 230.0847 505.3008 229.3488 505.3008C 228.6129 505.3008 228.0162 505.897 228.0162 506.6318C 228.0162 507.3667 228.6129 507.9629 229.3488 507.9629C 230.0847 507.9629 230.6814 507.3667 230.6814 506.6318" stroke="#000080" stroke-width="0.07201438" fill="#000080" fill-rule="winding" /><path transform="matrix(1 0 0 -1 0 595)" d="M251.1382 470.5522L272.7475 470.5522L272.7475 470.5522L272.7475 477.7471" stroke="#000080" stroke-width="0.720328" stroke-linecap="round" fill="none" /><path transform="matrix(1 0 0 -1 0 595)" d="M252.2907 470.6963C 252.2907 469.9814 251.694 469.4014 250.958 469.4014C 250.2222 469.4014 249.6255 469.9814 249.6255 470.6963C 249.6255 471.4121 250.2222 471.9917 250.958 471.9917C 251.694 471.9917 252.2907 471.4121 252.2907 470.6963" stroke="#000080" stroke-width="0.07201438" fill="#000080" fill-rule="winding" /><path transform="matrix(1 0 0 -1 0 595)" d="M251.1382 470.5522L251.1382 477.7471" stroke="#000080" stroke-width="0.720328" stroke-linecap="round" fill="none" /><path transform="matrix(1 0 0 -1 0 595)" d="M252.2907 470.6963C 252.2907 469.9814 251.694 469.4014 250.958 469.4014C 250.2222 469.4014 249.6255 469.9814 249.6255 470.6963C 249.6255 471.4121 250.2222 471.9917 250.958 471.9917C 251.694 471.9917 252.2907 471.4121 252.2907 470.6963" stroke="#000080" stroke-width="0.07201438" fill="#000080" fill-rule="winding" /><path transform="matrix(1 0 0 -1 0 595)" d="M251.1382 506.5234L251.1382 499.3296" stroke="#000080" stroke-width="0.720328" stroke-linecap="round" fill="none" /><path transform="matrix(1 0 0 -1 0 595)" d="M252.2907 506.6318C 252.2907 505.897 251.694 505.3008 250.958 505.3008C 250.2222 505.3008 249.6255 505.897 249.6255 506.6318C 249.6255 507.3667 250.2222 507.9629 250.958 507.9629C 251.694 507.9629 252.2907 507.3667 252.2907 506.6318" stroke="#000080" stroke-width="0.07201438" fill="#000080" fill-rule="winding" /><path transform="matrix(1 0 0 -1 0 595)" d="M222.3258 506.5234L229.5289 506.5234L229.5289 506.5234L251.1382 506.5234L251.1382 506.5234L272.7475 506.5234L272.7475 506.5234L272.7475 499.3296" stroke="#000080" stroke-width="0.720328" stroke-linecap="round" fill="none" /><path transform="matrix(1 0 0 -1 0 595)" d="M230.6814 506.6318C 230.6814 505.897 230.0847 505.3008 229.3488 505.3008C 228.6129 505.3008 228.0162 505.897 228.0162 506.6318C 228.0162 507.3667 228.6129 507.9629 229.3488 507.9629C 230.0847 507.9629 230.6814 507.3667 230.6814 506.6318" stroke="#000080" stroke-width="0.07201438" fill="#000080" fill-rule="winding" /><path transform="matrix(1 0 0 -1 0 595)" d="M252.2907 506.6318C 252.2907 505.897 251.694 505.3008 250.958 505.3008C 250.2222 505.3008 249.6255 505.897 249.6255 506.6318C 249.6255 507.3667 250.2222 507.9629 250.958 507.9629C 251.694 507.9629 252.2907 507.3667 252.2907 506.6318" stroke="#000080" stroke-width="0.07201438" fill="#000080" fill-rule="winding" /><path transform="matrix(1 0 0 -1 0 595)" d="M128.6856 484.9409L114.2794 484.9409L114.2794 484.9409L114.2794 463.3584" stroke="#000080" stroke-width="0.720328" stroke-linecap="round" fill="none" /></g></g></g></g></svg>